<?xml version="1.0" encoding="UTF-8"?>
<svg fill="none" viewBox="0 0 575 524" xmlns="http://www.w3.org/2000/svg">
<g fill="#3D3D3D" opacity=".29">
<path d="m22.517 225.05c0-6.191-5.0689-11.26-11.258-11.26-6.1895 0-11.258 5.069-11.258 11.26s5.0689 11.261 11.258 11.261c6.1894 0 11.258-5.017 11.258-11.261zm-19.582 0c0-4.589 3.735-8.325 8.3238-8.325 4.5887 0 8.3237 3.736 8.3237 8.325 0 4.59-3.735 8.325-8.3237 8.325-4.5888 0.054-8.3238-3.682-8.3238-8.325z" opacity=".29"/>
<path d="m251.31 2.2948c-0.48-0.48031-1.174-0.96062-1.921-1.3876-0.48-0.26684-1.067-0.53367-1.654-0.80051v-0.10674h-7.043c0.427 0.42694 0.961 0.80051 1.547 1.1741 0.694 0.42694 1.548 0.85388 2.562 1.2274v7.0979c-0.374 0-0.747-0.05337-1.174-0.10674-0.481-0.10673-0.961-0.21347-1.441-0.37357-0.427-0.1601-1.014-0.3202-1.174-0.37357-0.747-0.37357-2.081 0.1601-2.081 1.1207v0.53368c0 0.4803 0.267 0.9072 0.694 1.1207 1.441 0.7472 3.148 1.1207 5.122 1.1207h0.107v2.5617c0 0.8005 0.64 1.4409 1.441 1.4409 0.8 0 1.44-0.6404 1.44-1.4409v-2.9352c0.054 0 0.107 0 0.16-0.0534 0.961-0.2668 1.868-0.6938 2.561-1.2275 0.747-0.5336 1.334-1.2274 1.761-2.0279s0.64-1.7078 0.64-2.7217c0-0.80051-0.106-1.5476-0.373-2.1881-0.267-0.58704-0.64-1.1741-1.174-1.6544zm-3.575 6.7776v-5.2834c0.16 0.10674 0.374 0.21347 0.534 0.37357 0.373 0.32021 0.64 0.64041 0.854 0.96062 0.213 0.3202 0.266 0.74714 0.266 1.2274 0 1.3342-0.533 2.2414-1.654 2.7217z" opacity=".29"/>
<path d="m264.17 0c0.054 0.42694 0.054 0.90724 0.054 1.3342 0 4.8031-1.815 9.3393-5.229 12.755-3.415 3.4155-7.951 5.3367-12.806 5.3367-4.802 0-9.284-1.8678-12.699-5.23-3.415-3.4155-5.336-7.8984-5.336-12.701 0-0.48031 0-1.014 0.054-1.4943h-2.882c-0.373 5.8704 1.654 11.848 6.136 16.277 3.949 3.8959 9.178 6.0839 14.727 6.0839 5.602 0 10.885-2.188 14.887-6.1906 3.948-3.9492 6.082-9.2325 6.082-14.836 0-0.42694 0-0.90724-0.053-1.3342h-2.935z" opacity=".29"/>
<path d="m260.33 3.1487c-0.801-0.05337-1.494 0.58704-1.548 1.3876v0.3202c-0.053 0.80051 0.534 1.4943 1.334 1.5477h0.107c0.747 0 1.387-0.58704 1.44-1.3342v-0.37357c0.107-0.85388-0.533-1.5476-1.333-1.5476z" opacity=".29"/>
<path d="m261.4 0h-2.935c0.053 0.3202 0.107 0.69378 0.16 1.014 0.107 0.74714 0.747 1.2274 1.441 1.2274h0.213c0.801-0.10674 1.334-0.85388 1.227-1.6544 0-0.21347-0.053-0.37357-0.106-0.58704z" opacity=".29"/>
<path d="m477.97 99.317c1.441 0.7474 3.148 1.1204 5.123 1.1204h0.106v2.562c0 0.8 0.641 1.441 1.441 1.441s1.441-0.641 1.441-1.441v-2.935c0.053 0 0.106 0 0.16-0.054 0.96-0.2664 1.867-0.6934 2.561-1.227 0.747-0.5337 1.334-1.2275 1.761-2.028 0.426-0.8005 0.64-1.7078 0.64-2.7217 0-0.8005-0.107-1.5477-0.374-2.1881-0.266-0.6404-0.64-1.2274-1.173-1.7077-0.481-0.4804-1.174-0.9607-1.921-1.3876-0.481-0.2668-1.067-0.5337-1.654-0.8005v-7.3647c0.747 0.1067 1.494 0.2668 2.187 0.5337 0.214 0.0533 0.374 0.1067 0.587 0.1067 0.854 0 1.601-0.6938 1.601-1.601 0-0.6404-0.427-1.2275-1.014-1.4943-1.014-0.3736-2.134-0.587-3.361-0.6938v-2.0813c0-0.8005-0.641-1.4409-1.441-1.4409s-1.441 0.6404-1.441 1.4409v2.2414c-0.32 0.0534-0.587 0.1068-0.907 0.2135-0.96 0.2668-1.761 0.6938-2.508 1.2275-0.747 0.5336-1.334 1.2274-1.76 1.9745-0.427 0.8006-0.641 1.7078-0.641 2.6684 0 0.8005 0.107 1.4943 0.374 2.1347 0.213 0.6404 0.587 1.2275 1.067 1.7611 0.48 0.5337 1.067 1.014 1.814 1.4409 0.694 0.427 1.547 0.8539 2.561 1.2275v7.0978c-0.373 0-0.747-0.0533-1.174-0.1067-0.48-0.1067-0.96-0.2135-1.44-0.3736-0.427-0.1601-0.961-0.3202-1.174-0.3735-0.747-0.3736-2.081 0.1601-2.081 1.1207v0.5336c0 0.5337 0.267 0.9607 0.64 1.1741zm5.069-12.701c-0.533-0.2668-0.96-0.587-1.28-0.8539-0.321-0.2668-0.534-0.587-0.694-0.9606s-0.213-0.7471-0.213-1.2274c0-0.427 0.106-0.8539 0.266-1.2275 0.214-0.3735 0.481-0.6938 0.801-0.9606s0.747-0.4803 1.28-0.6404v5.9771c-0.053-0.0533-0.106-0.0533-0.16-0.1067zm3.095 5.0699c0.16 0.1067 0.373 0.2135 0.533 0.3736 0.374 0.3202 0.641 0.6404 0.854 0.9606 0.214 0.3202 0.267 0.7471 0.267 1.2274 0 1.3342-0.534 2.2415-1.654 2.7218v-5.2834z" opacity=".29"/>
<path d="m484.59 110.26c5.602 0 10.884-2.188 14.886-6.191 3.949-3.949 6.083-9.2322 6.083-14.836s-2.241-10.834-6.189-14.783c-3.949-3.8959-9.178-6.0839-14.727-6.0839-5.603 0-10.885 2.188-14.887 6.1906-8.11 8.2186-8.057 21.454 0.107 29.619 3.895 3.949 9.124 6.084 14.727 6.084zm-12.806-33.622c3.415-3.4155 7.95-5.3367 12.806-5.3367 4.802 0 9.284 1.8678 12.699 5.23 3.414 3.4155 5.335 7.8984 5.335 12.701 0 4.8031-1.814 9.3393-5.229 12.755-3.415 3.416-7.95 5.337-12.805 5.337-4.803 0-9.285-1.868-12.699-5.23-7.044-6.938-7.097-18.359-0.107-25.456z" opacity=".29"/>
<path d="m498.73 91.045c-0.8-0.0534-1.494 0.587-1.547 1.3876v0.3202c-0.053 0.8005 0.533 1.4942 1.334 1.5476h0.107c0.747 0 1.387-0.587 1.44-1.3342v-0.3735c0.054-0.8006-0.533-1.4943-1.334-1.5477z" opacity=".29"/>
<path d="m495.8 84.48c0.587 1.3876 1.013 2.8819 1.227 4.4295 0.107 0.7472 0.747 1.2275 1.44 1.2275h0.214c0.8-0.1068 1.334-0.8539 1.227-1.6544-0.267-1.7612-0.747-3.5223-1.441-5.1767-1.013-2.4015-2.507-4.5896-4.375-6.4574-0.587-0.5871-1.494-0.5871-2.081 0-0.587 0.587-0.587 1.4943 0 2.0813 1.601 1.6544 2.882 3.5223 3.789 5.5502z" opacity=".29"/>
<path d="m363.2 189.83c1.067 0.533 2.348 0.854 3.788 0.854v1.921c0 0.8 0.641 1.441 1.441 1.441s1.441-0.641 1.441-1.441v-2.295c0.693-0.214 1.334-0.534 1.867-0.907 0.587-0.427 1.067-0.961 1.387-1.601 0.321-0.641 0.481-1.388 0.481-2.188 0-0.641-0.107-1.228-0.32-1.708-0.214-0.48-0.534-0.961-0.907-1.388-0.427-0.373-0.908-0.747-1.548-1.12-0.32-0.161-0.64-0.321-1.014-0.534v-5.71c0.481 0.106 0.907 0.213 1.334 0.373 0.16 0.054 0.32 0.107 0.48 0.107 0.747 0 1.334-0.587 1.334-1.334 0-0.534-0.32-1.014-0.853-1.228-0.694-0.267-1.494-0.427-2.295-0.533v-1.601c0-0.801-0.64-1.441-1.44-1.441-0.801 0-1.441 0.64-1.441 1.441v1.761c-0.16 0.053-0.267 0.053-0.427 0.106-0.747 0.214-1.387 0.534-1.974 0.961s-1.067 0.961-1.387 1.601c-0.374 0.641-0.534 1.334-0.534 2.135 0 0.64 0.107 1.174 0.267 1.708 0.213 0.48 0.48 0.96 0.854 1.387 0.373 0.427 0.853 0.801 1.44 1.121 0.48 0.267 1.067 0.587 1.708 0.854v5.497c-0.214 0-0.374-0.054-0.587-0.054-0.374-0.053-0.747-0.16-1.121-0.32-0.32-0.107-0.8-0.267-0.907-0.267-0.64-0.32-1.761 0.107-1.761 0.961v0.427c0.16 0.48 0.374 0.854 0.694 1.014zm3.041-10.727c-0.213-0.214-0.426-0.427-0.533-0.694s-0.16-0.587-0.16-0.961c0-0.32 0.053-0.64 0.213-0.907s0.32-0.534 0.587-0.747c0.16-0.16 0.374-0.267 0.64-0.374v4.163c-0.266-0.107-0.533-0.32-0.747-0.48zm3.682 5.016c0.32 0.267 0.534 0.481 0.694 0.747 0.16 0.267 0.213 0.588 0.213 0.908 0 0.64-0.107 1.387-0.907 1.868v-3.523z" opacity=".29"/>
<path d="m368.38 198.63c4.482 0 8.697-1.761 11.845-4.91 3.148-3.148 4.856-7.364 4.856-11.794 0-4.429-1.761-8.645-4.909-11.794-3.148-3.095-7.31-4.856-11.739-4.856-4.482 0-8.697 1.761-11.845 4.909-6.456 6.511-6.403 17.131 0.107 23.589 3.094 3.149 7.256 4.856 11.685 4.856zm-9.765-26.363c2.615-2.615 6.083-4.056 9.765-4.056 3.628 0 7.096 1.441 9.711 4.002 2.614 2.615 4.055 6.031 4.055 9.713 0 3.683-1.387 7.152-4.002 9.767-2.614 2.615-6.083 4.055-9.764 4.055-3.629 0-7.097-1.44-9.711-4.002-5.336-5.337-5.389-14.089-0.054-19.479z" opacity=".29"/>
<path d="m379.48 182.94c-0.8-0.053-1.494 0.587-1.547 1.388v0.267c-0.054 0.8 0.533 1.494 1.334 1.547h0.106c0.747 0 1.388-0.587 1.441-1.334v-0.32c0.053-0.801-0.534-1.494-1.334-1.548z" opacity=".29"/>
<path d="m376.86 178.3c0.481 1.068 0.801 2.242 0.961 3.362 0.107 0.748 0.747 1.228 1.441 1.228h0.213c0.8-0.107 1.334-0.854 1.227-1.654-0.213-1.441-0.587-2.776-1.174-4.11-0.8-1.921-2.027-3.629-3.521-5.123-0.587-0.587-1.494-0.587-2.081 0s-0.587 1.494 0 2.081c1.28 1.228 2.241 2.615 2.934 4.216z" opacity=".29"/>
<path d="m252.22 118.85c1.067 0.534 2.348 0.854 3.789 0.854v1.921c0 0.801 0.64 1.441 1.44 1.441 0.801 0 1.441-0.64 1.441-1.441v-2.295c0.693-0.213 1.334-0.533 1.867-0.907 0.587-0.427 1.067-0.96 1.388-1.601 0.32-0.64 0.48-1.387 0.48-2.188 0-0.64-0.107-1.227-0.32-1.708-0.214-0.48-0.534-0.96-0.907-1.387-0.427-0.374-0.907-0.747-1.548-1.121-0.32-0.16-0.64-0.32-1.014-0.534v-5.71c0.481 0.107 0.908 0.214 1.334 0.374 0.16 0.053 0.321 0.106 0.481 0.106 0.747 0 1.334-0.587 1.334-1.334 0-0.533-0.321-1.014-0.854-1.227-0.694-0.267-1.494-0.427-2.295-0.534v-1.6009c0-0.8005-0.64-1.441-1.44-1.441-0.801 0-1.441 0.6405-1.441 1.441v1.7609c-0.16 0.054-0.267 0.054-0.427 0.107-0.747 0.213-1.44 0.534-1.974 0.961-0.587 0.426-1.067 0.96-1.387 1.601-0.374 0.64-0.534 1.334-0.534 2.134 0 0.641 0.107 1.174 0.267 1.708 0.213 0.48 0.48 0.961 0.854 1.388 0.373 0.426 0.853 0.8 1.44 1.12 0.481 0.267 1.068 0.587 1.708 0.854v5.497c-0.214 0-0.374-0.053-0.587-0.053-0.374-0.054-0.747-0.16-1.121-0.321-0.32-0.106-0.747-0.266-0.907-0.266-0.64-0.321-1.76 0.106-1.76 0.96v0.427c0.106 0.48 0.32 0.854 0.693 1.014zm3.042-10.727c-0.214-0.213-0.427-0.427-0.534-0.694-0.107-0.266-0.16-0.587-0.16-0.96 0-0.32 0.053-0.641 0.213-0.907 0.16-0.267 0.32-0.534 0.587-0.748 0.16-0.16 0.374-0.266 0.641-0.373v4.163c-0.321-0.107-0.587-0.267-0.747-0.481zm3.628 5.017s0.053 0.053 0 0c0.32 0.267 0.533 0.48 0.693 0.747 0.161 0.267 0.214 0.587 0.214 0.907 0 0.641-0.107 1.388-0.907 1.868v-3.522z" opacity=".29"/>
<path d="m257.4 127.66c4.482 0 8.697-1.761 11.845-4.91s4.856-7.365 4.856-11.794c0-4.43-1.761-8.646-4.909-11.794-3.148-3.0953-7.31-4.8564-11.739-4.8564-4.482 0-8.697 1.7611-11.845 4.9098-6.456 6.5111-6.403 17.131 0.107 23.588 3.094 3.149 7.256 4.857 11.685 4.857zm-9.818-26.364c2.615-2.6148 6.083-4.0557 9.765-4.0557 3.628 0 7.096 1.4409 9.711 4.0027 2.614 2.615 4.055 6.03 4.055 9.713 0 3.682-1.388 7.151-4.002 9.766-2.615 2.615-6.083 4.056-9.764 4.056-3.629 0-7.097-1.441-9.711-4.003-2.615-2.615-4.056-6.03-4.056-9.713 0-3.682 1.441-7.151 4.002-9.766z" opacity=".29"/>
<path d="m268.44 112.02c-0.801-0.053-1.494 0.587-1.548 1.388v0.266c-0.053 0.801 0.534 1.495 1.334 1.548h0.107c0.747 0 1.387-0.587 1.441-1.334v-0.32c0.106-0.854-0.534-1.548-1.334-1.548z" opacity=".29"/>
<path d="m265.82 107.32c0.48 1.067 0.801 2.188 0.961 3.362 0.106 0.747 0.747 1.227 1.44 1.227h0.214c0.8-0.106 1.334-0.854 1.227-1.654-0.213-1.441-0.587-2.775-1.174-4.109-0.8-1.922-2.027-3.629-3.521-5.124-0.587-0.587-1.494-0.587-2.081 0s-0.587 1.495 0 2.082c1.28 1.227 2.241 2.668 2.934 4.216z" opacity=".29"/>
<path d="m96.31 236.84c-0.4268-0.427-1.0137-0.854-1.654-1.174-0.3735-0.213-0.8004-0.427-1.2272-0.587v-6.297c0.5335 0.107 1.1205 0.213 1.6007 0.427 0.16 0.053 0.3201 0.106 0.5335 0.106 0.8004 0 1.3873-0.64 1.3873-1.387 0-0.587-0.3735-1.121-0.907-1.334-0.8004-0.32-1.7075-0.481-2.6679-0.587v-1.761c0-0.801-0.6403-1.441-1.4406-1.441-0.8004 0-1.4407 0.64-1.4407 1.441v1.921c-0.2134 0.053-0.3735 0.107-0.5869 0.16-0.8004 0.267-1.5474 0.587-2.1877 1.067-0.6403 0.481-1.1205 1.068-1.494 1.708-0.3735 0.694-0.5869 1.441-0.5869 2.348 0 0.694 0.1067 1.281 0.3201 1.815 0.2135 0.533 0.5336 1.067 0.9605 1.494 0.4268 0.427 0.9604 0.854 1.5473 1.227 0.587 0.321 1.2272 0.641 1.9742 0.961v6.031c-0.2667 0-0.5335-0.054-0.8003-0.107-0.4269-0.054-0.8004-0.16-1.2272-0.32-0.3735-0.107-0.8537-0.267-0.9605-0.321-0.6936-0.373-1.8675 0.16-1.8675 1.014v0.481c0 0.427 0.2135 0.8 0.587 0.96 1.1738 0.641 2.6145 0.961 4.2685 0.961v2.135c0 0.8 0.6403 1.441 1.4407 1.441 0.8003 0 1.4406-0.641 1.4406-1.441v-2.509c0.8004-0.213 1.5474-0.587 2.1877-1.014 0.6403-0.48 1.1205-1.067 1.494-1.761s0.5335-1.494 0.5335-2.348c0-0.694-0.1067-1.334-0.3201-1.868-0.1067-0.48-0.4268-1.014-0.9071-1.441zm-6.7763-3.789c-0.2668-0.213-0.4269-0.48-0.587-0.8-0.1067-0.267-0.16-0.641-0.16-1.014 0-0.374 0.0533-0.747 0.2134-1.014 0.1601-0.32 0.3735-0.587 0.6937-0.801 0.2134-0.16 0.5335-0.32 0.8537-0.427v4.803c-0.4269-0.266-0.747-0.533-1.0138-0.747zm3.8951 5.337c0.0533 0.053 0.16 0.107 0.2134 0.107 0.3201 0.267 0.5335 0.533 0.747 0.8 0.1601 0.267 0.2134 0.641 0.2134 1.014 0 1.014-0.3735 1.708-1.1738 2.135v-4.056z" opacity=".29"/>
<path d="m91.881 218.06c-4.8555 0-9.4442 1.921-12.859 5.337-3.4148 3.415-5.2823 8.005-5.229 12.808 0 4.856 1.9209 9.393 5.3357 12.755 3.4149 3.362 7.9502 5.23 12.752 5.23 4.8555 0 9.444-1.922 12.859-5.337 3.415-3.416 5.282-8.005 5.229-12.808 0-4.857-1.921-9.393-5.336-12.755s-7.9499-5.23-12.752-5.23zm10.831 28.765c-2.8808 2.882-6.7225 4.483-10.778 4.483-4.0552 0-7.8435-1.548-10.672-4.376-2.8813-2.882-4.482-6.671-4.482-10.727s1.5474-7.898 4.3753-10.78c2.8813-2.882 6.723-4.483 10.778-4.483 4.0551 0 7.8434 1.547 10.672 4.376 2.881 2.882 4.482 6.671 4.482 10.727 0 4.109-1.548 7.898-4.376 10.78z" opacity=".29"/>
<path d="m103.99 237.38c-0.8-0.053-1.494 0.587-1.547 1.387v0.267c-0.054 0.801 0.533 1.495 1.334 1.548h0.106c0.747 0 1.388-0.587 1.441-1.334v-0.32c0.107-0.801-0.534-1.495-1.334-1.548z" opacity=".29"/>
<path d="m98.124 225.42c-0.5869 0.587-0.5869 1.494 0 2.081 1.3339 1.334 2.4012 2.935 3.1482 4.643 0.533 1.174 0.854 2.455 1.067 3.736 0.107 0.747 0.747 1.227 1.441 1.227h0.213c0.8-0.107 1.334-0.854 1.227-1.654-0.213-1.548-0.64-3.042-1.28-4.483-0.907-2.081-2.188-3.949-3.789-5.55-0.5866-0.587-1.4936-0.587-2.0272 0z" opacity=".29"/>
<path d="m479.47 258.88c-0.427-0.427-1.013-0.854-1.654-1.174-0.373-0.214-0.8-0.427-1.227-0.587v-6.297c0.534 0.106 1.121 0.213 1.601 0.426 0.16 0.054 0.32 0.107 0.533 0.107 0.801 0 1.388-0.64 1.388-1.387 0-0.587-0.374-1.121-0.908-1.335-0.8-0.32-1.707-0.48-2.667-0.587v-1.761c0-0.8-0.641-1.441-1.441-1.441s-1.441 0.641-1.441 1.441v1.922c-0.213 0.053-0.373 0.106-0.587 0.16-0.8 0.266-1.547 0.587-2.134 1.067-0.64 0.48-1.12 1.067-1.494 1.708-0.373 0.694-0.587 1.441-0.587 2.348 0 0.694 0.107 1.281 0.32 1.814 0.214 0.534 0.534 1.068 0.961 1.495s0.96 0.854 1.547 1.227c0.587 0.32 1.227 0.641 1.974 0.961v6.03c-0.266 0-0.533-0.053-0.8-0.107-0.427-0.053-0.8-0.16-1.227-0.32-0.374-0.106-0.854-0.267-0.961-0.32-0.693-0.373-1.867 0.16-1.867 1.014v0.48c0 0.427 0.213 0.801 0.587 0.961 1.174 0.64 2.614 0.961 4.268 0.961v2.134c0 0.801 0.641 1.441 1.441 1.441s1.441-0.64 1.441-1.441v-2.455c0.8-0.213 1.547-0.587 2.187-1.014 0.641-0.48 1.121-1.067 1.494-1.761 0.374-0.694 0.534-1.494 0.534-2.348 0-0.694-0.107-1.334-0.32-1.868-0.214-0.587-0.534-1.067-0.961-1.494zm-6.776-3.789c-0.267-0.214-0.427-0.48-0.587-0.801-0.107-0.266-0.16-0.64-0.16-1.014 0-0.373 0.053-0.747 0.213-1.014 0.16-0.32 0.374-0.587 0.694-0.8 0.213-0.16 0.534-0.32 0.854-0.427v4.75c-0.427-0.267-0.801-0.481-1.014-0.694zm3.895 5.337c0.053 0.053 0.16 0.106 0.213 0.106 0.321 0.267 0.534 0.534 0.747 0.801 0.161 0.267 0.214 0.64 0.214 1.014 0 1.014-0.374 1.708-1.174 2.135v-4.056z" opacity=".29"/>
<path d="m487.74 245.33c-3.415-3.362-7.951-5.23-12.753-5.23-4.855 0-9.391 1.921-12.859 5.336-7.043 7.098-6.99 18.572 0.107 25.563 3.415 3.363 7.95 5.23 12.752 5.23 4.856 0 9.391-1.921 12.859-5.336 7.043-7.045 6.99-18.519-0.106-25.563zm-12.699 28.018c-4.002 0-7.844-1.548-10.672-4.377-5.922-5.87-5.976-15.529-0.106-21.453 2.881-2.882 6.669-4.483 10.778-4.483 4.001 0 7.843 1.548 10.671 4.376 5.923 5.87 5.976 15.53 0.107 21.454-2.882 2.882-6.723 4.483-10.778 4.483z" opacity=".29"/>
<path d="m487.1 259.42c-0.8-0.054-1.494 0.587-1.547 1.387v0.267c-0.053 0.801 0.534 1.494 1.334 1.548h0.107c0.747 0 1.387-0.587 1.44-1.334v-0.321c0.107-0.8-0.533-1.494-1.334-1.547z" opacity=".29"/>
<path d="m486.88 259.1h0.213c0.801-0.106 1.334-0.853 1.228-1.654-0.214-1.548-0.641-3.042-1.281-4.483-0.907-2.081-2.188-3.949-3.788-5.55-0.587-0.587-1.494-0.587-2.081 0s-0.587 1.494 0 2.081c1.334 1.335 2.401 2.882 3.148 4.643 0.533 1.174 0.853 2.455 1.067 3.736 0.16 0.694 0.8 1.227 1.494 1.227z" opacity=".29"/>
<path d="m192.94 497.92c-0.32-0.32-0.693-0.587-1.173-0.854-0.161-0.053-0.267-0.16-0.427-0.213v-4.216c0.213 0.053 0.427 0.107 0.64 0.213 0.107 0.054 0.267 0.054 0.427 0.054 0.587 0 1.067-0.481 1.067-1.068 0-0.426-0.267-0.853-0.694-1.014-0.427-0.16-0.907-0.266-1.44-0.373v-1.121c0-0.8-0.641-1.441-1.441-1.441s-1.441 0.641-1.441 1.441v1.334c-0.587 0.16-1.067 0.427-1.494 0.748-0.426 0.32-0.8 0.747-1.067 1.227s-0.427 1.067-0.427 1.654c0 0.481 0.054 0.908 0.214 1.335 0.16 0.373 0.373 0.747 0.693 1.067 0.267 0.32 0.641 0.587 1.121 0.854 0.267 0.16 0.64 0.32 0.96 0.48v4.056h-0.053c-0.267-0.053-0.534-0.107-0.8-0.213-0.267-0.107-0.587-0.214-0.641-0.214-0.533-0.267-1.44 0.107-1.44 0.801v0.32c0 0.32 0.16 0.64 0.48 0.8 0.747 0.374 1.601 0.587 2.561 0.641v1.387c0 0.801 0.64 1.441 1.441 1.441 0.8 0 1.44-0.64 1.44-1.441v-1.761c0.427-0.16 0.801-0.373 1.121-0.587 0.48-0.32 0.8-0.747 1.067-1.227 0.267-0.481 0.374-1.068 0.374-1.655 0-0.48-0.054-0.96-0.214-1.334-0.32-0.427-0.533-0.8-0.854-1.121zm-1.6 1.761c0 0.054 0.053 0.054 0.106 0.107 0.107 0.16 0.16 0.374 0.16 0.641 0 0.32-0.053 0.64-0.213 0.907v-1.655h-0.053zm-3.095-4.376c-0.16-0.16-0.267-0.32-0.374-0.48-0.053-0.213-0.106-0.427-0.106-0.694s0.053-0.48 0.16-0.64c0.107-0.214 0.267-0.374 0.427-0.534 0 0 0.053 0 0.053-0.053v2.508c-0.053-0.053-0.107-0.053-0.16-0.107z" opacity=".29"/>
<path d="m189.79 484.58c-3.468 0-6.723 1.334-9.177 3.842-2.455 2.455-3.735 5.71-3.735 9.126 0 3.469 1.387 6.671 3.842 9.126 2.454 2.401 5.655 3.735 9.07 3.735 3.469 0 6.723-1.334 9.178-3.842 2.454-2.455 3.735-5.71 3.735-9.126 0-3.469-1.388-6.671-3.842-9.126-2.401-2.401-5.602-3.735-9.071-3.735zm7.097 20.012c-1.868 1.922-4.429 2.989-7.097 2.989s-5.175-1.014-7.043-2.882c-1.921-1.868-2.934-4.376-2.988-7.044 0-2.669 1.014-5.177 2.881-7.098 1.868-1.922 4.429-2.989 7.097-2.989s5.176 1.014 7.043 2.882c1.921 1.868 2.935 4.376 2.988 7.044 0.053 2.669-0.96 5.177-2.881 7.098z" opacity=".29"/>
<path d="m247.52 355.21c-0.374-0.374-0.854-0.694-1.387-1.014-0.267-0.16-0.534-0.267-0.801-0.427v-5.176c0.374 0.053 0.747 0.16 1.067 0.32 0.16 0.053 0.32 0.106 0.481 0.106 0.693 0 1.227-0.533 1.227-1.227 0-0.48-0.32-0.961-0.801-1.174-0.587-0.214-1.28-0.374-1.974-0.48v-1.441c0-0.801-0.64-1.441-1.44-1.441-0.801 0-1.441 0.64-1.441 1.441v1.601c-0.107 0-0.16 0.053-0.267 0.053-0.694 0.214-1.28 0.48-1.814 0.907-0.534 0.374-0.96 0.854-1.281 1.441-0.32 0.587-0.48 1.228-0.48 1.975 0 0.587 0.107 1.121 0.267 1.547 0.16 0.481 0.427 0.908 0.8 1.281 0.32 0.374 0.801 0.747 1.334 1.014 0.427 0.267 0.907 0.481 1.441 0.747v5.017c-0.107 0-0.267-0.053-0.427-0.053-0.32-0.054-0.694-0.161-1.014-0.267-0.267-0.107-0.693-0.214-0.8-0.267-0.587-0.32-1.654 0.107-1.654 0.907v0.374c0 0.373 0.213 0.694 0.533 0.854 0.961 0.48 2.081 0.747 3.362 0.8v1.708c0 0.8 0.64 1.441 1.441 1.441 0.8 0 1.44-0.641 1.44-1.441v-1.975c0.587-0.213 1.121-0.48 1.601-0.8 0.533-0.374 0.96-0.907 1.28-1.494 0.321-0.588 0.481-1.228 0.481-1.975 0-0.587-0.107-1.121-0.267-1.601-0.214-0.48-0.534-0.907-0.907-1.281zm-5.656-3.149c-0.213-0.213-0.374-0.427-0.48-0.64-0.107-0.213-0.16-0.534-0.16-0.854s0.053-0.587 0.213-0.854c0.107-0.267 0.32-0.48 0.534-0.64 0.106-0.107 0.266-0.16 0.427-0.267v3.629c-0.161-0.107-0.374-0.213-0.534-0.374zm3.468 4.75c0.214 0.16 0.374 0.374 0.48 0.534 0.107 0.213 0.214 0.48 0.214 0.8 0 0.534-0.107 1.121-0.64 1.601v-2.935h-0.054z" opacity=".29"/>
<path d="m243.79 339.42c-4.109 0-7.95 1.601-10.885 4.537-2.881 2.881-4.429 6.777-4.429 10.833 0 4.109 1.601 7.952 4.536 10.834 2.881 2.882 6.723 4.429 10.778 4.429 4.108 0 7.95-1.601 10.885-4.536 5.922-5.977 5.922-15.69-0.107-21.667-2.881-2.882-6.67-4.43-10.778-4.43zm8.804 24.016c-2.348 2.348-5.496 3.682-8.804 3.682s-6.403-1.281-8.751-3.576c-2.348-2.348-3.681-5.443-3.681-8.752s1.28-6.457 3.574-8.805c2.348-2.349 5.496-3.683 8.804-3.683 3.309 0 6.403 1.281 8.751 3.576 4.909 4.856 4.962 12.701 0.107 17.558z" opacity=".29"/>
<path d="m248.8 345.61c-0.587 0.587-0.587 1.494 0 2.081 1.121 1.121 1.975 2.348 2.615 3.789 0.427 0.961 0.693 1.975 0.854 3.042 0.053 0.534 0.48 0.961 0.96 1.174-0.48 0.214-0.8 0.694-0.854 1.228v0.213c-0.053 0.801 0.534 1.495 1.334 1.548h0.107c0.747 0 1.387-0.587 1.441-1.334v-0.267c0.053-0.641-0.374-1.228-0.961-1.441 0.587-0.267 0.961-0.854 0.854-1.548-0.214-1.28-0.534-2.561-1.067-3.789-0.747-1.761-1.814-3.362-3.202-4.696-0.587-0.587-1.547-0.587-2.081 0z" opacity=".29"/>
<path d="m132.54 485.32c-0.373-0.374-0.907-0.747-1.494-1.068l-0.96-0.48v-5.604c0.427 0.107 0.853 0.214 1.28 0.374 0.16 0.053 0.32 0.107 0.48 0.107 0.694 0 1.281-0.587 1.281-1.281 0-0.534-0.32-1.014-0.8-1.228-0.694-0.266-1.441-0.426-2.241-0.533v-1.548c0-0.8-0.641-1.441-1.441-1.441s-1.441 0.641-1.441 1.441v1.708c-0.106 0.053-0.266 0.053-0.373 0.107-0.747 0.213-1.387 0.533-1.974 0.96s-1.014 0.961-1.388 1.548c-0.32 0.64-0.533 1.334-0.533 2.081 0 0.641 0.107 1.174 0.267 1.655 0.16 0.48 0.48 0.96 0.853 1.387 0.374 0.427 0.854 0.801 1.441 1.121 0.48 0.267 1.014 0.534 1.654 0.8v5.39c-0.16 0-0.373-0.053-0.534-0.053-0.373-0.053-0.747-0.16-1.12-0.32-0.32-0.107-0.747-0.267-0.854-0.267-0.64-0.32-1.707 0.107-1.707 0.961v0.427c0 0.373 0.213 0.747 0.533 0.907 1.014 0.534 2.295 0.8 3.682 0.854v1.868c0 0.8 0.64 1.441 1.441 1.441 0.8 0 1.44-0.641 1.44-1.441v-2.242c0.694-0.213 1.281-0.48 1.814-0.907 0.587-0.427 1.014-0.961 1.388-1.548 0.32-0.64 0.48-1.334 0.48-2.134 0-0.641-0.107-1.228-0.32-1.708-0.107-0.48-0.427-0.907-0.854-1.334zm-6.083-3.363c-0.213-0.213-0.373-0.426-0.48-0.693s-0.16-0.587-0.16-0.908c0-0.32 0.053-0.64 0.214-0.907 0.16-0.267 0.32-0.533 0.586-0.694 0.161-0.106 0.374-0.213 0.587-0.32v4.056c-0.32-0.213-0.533-0.373-0.747-0.534zm3.629 4.964c0.266 0.213 0.48 0.48 0.64 0.693 0.16 0.267 0.213 0.534 0.213 0.908 0 0.587-0.106 1.334-0.853 1.814v-3.415z" opacity=".29"/>
<path d="m128.54 468.35c-4.375 0-8.537 1.708-11.631 4.856-3.095 3.096-4.749 7.205-4.749 11.581s1.761 8.485 4.855 11.581c3.095 3.042 7.203 4.749 11.525 4.749 4.376 0 8.538-1.707 11.632-4.856 6.35-6.404 6.296-16.811-0.106-23.161-3.042-3.042-7.15-4.75-11.526-4.75zm9.605 25.883c-2.561 2.562-5.923 4.003-9.551 4.003-3.575 0-6.937-1.388-9.498-3.896-2.561-2.509-3.948-5.924-4.002-9.5 0-3.575 1.388-6.991 3.895-9.552 2.562-2.562 5.923-4.003 9.551-4.003 3.575 0 6.937 1.388 9.498 3.896 5.282 5.23 5.336 13.769 0.107 19.052z" opacity=".29"/>
<path d="m133.98 475.02c-0.587 0.587-0.587 1.494 0 2.081 1.227 1.174 2.134 2.562 2.828 4.109 0.48 1.068 0.747 2.188 0.907 3.309 0.107 0.694 0.693 1.228 1.387 1.228-0.694 0.106-1.227 0.64-1.281 1.334v0.267c-0.053 0.8 0.534 1.494 1.334 1.547h0.107c0.747 0 1.387-0.587 1.441-1.334v-0.267c0.053-0.8-0.587-1.494-1.387-1.547 0.8-0.107 1.333-0.854 1.227-1.655-0.214-1.387-0.587-2.775-1.121-4.056-0.8-1.868-1.974-3.575-3.415-5.016-0.533-0.587-1.44-0.587-2.027 0z" opacity=".29"/>
<path d="m538.43 183.42c-6.723 1.28-12.592 5.069-16.434 10.78-5.549 8.112-5.923 18.838-1.014 27.377 0.214 0.374 0.427 0.694 0.64 1.068l-2.561 9.125c-0.213 0.854 0 1.762 0.641 2.402 0.426 0.427 1.013 0.64 1.654 0.64 0.266 0 0.533-0.053 0.747-0.106l9.284-3.149c0.32 0.16 0.587 0.32 0.907 0.427 3.521 1.654 7.256 2.455 10.885 2.455 8.217 0 16.22-4.003 21.129-11.261 7.95-11.687 4.962-27.697-6.723-35.649-5.602-4.003-12.432-5.39-19.155-4.109zm27.105 20.973c1.121 5.977-0.16 12.008-3.575 17.024-6.296 9.286-18.248 12.541-28.439 7.792-1.12-0.534-2.188-1.121-3.201-1.815-0.641-0.48-1.548-0.267-2.028 0.374-0.32 0.48-0.32 1.121 0 1.601l-6.189 2.081 1.707-6.137c0.534 0.267 1.174 0.267 1.654-0.16 0.64-0.534 0.694-1.441 0.214-2.028-0.801-0.961-1.548-2.028-2.188-3.149-4.375-7.525-4.002-17.077 0.854-24.229 3.414-5.016 8.59-8.432 14.566-9.552 5.976-1.121 12.006 0.16 17.021 3.575 5.069 3.469 8.484 8.646 9.604 14.623z" opacity=".29"/>
<path d="m553.58 193.35c1.975 1.334 3.629 3.042 4.963 4.963 1.654 2.455 2.667 5.283 2.988 8.272 0.106 0.747 0.693 1.281 1.44 1.281h0.16c0.801-0.107 1.388-0.801 1.281-1.601-0.374-3.416-1.601-6.724-3.468-9.553-1.494-2.295-3.469-4.216-5.71-5.764-0.64-0.427-1.547-0.266-2.027 0.374-0.48 0.694-0.267 1.601 0.373 2.028z" opacity=".29"/>
<path d="m563.13 207.97c-0.853-0.054-1.494 0.587-1.494 1.387 0 0.587-0.053 1.174-0.16 1.761-0.106 0.801 0.427 1.548 1.227 1.655h0.214c0.693 0 1.334-0.534 1.44-1.281 0.107-0.694 0.161-1.388 0.161-2.082 0.053-0.693-0.587-1.387-1.388-1.44z" opacity=".29"/>
<path d="m537.57 220.46c0.214 0.32 0.534 0.48 0.961 0.48h0.053c0.48 0 0.854-0.267 1.067-0.694l9.018-22.308c0.16-0.373 0.106-0.747-0.107-1.067-0.214-0.32-0.534-0.48-0.961-0.48-0.48 0-0.853 0.267-1.067 0.694l-9.017 22.307c-0.214 0.32-0.16 0.747 0.053 1.068z" opacity=".29"/>
<path d="m541.04 202.1c0-1.708-0.587-3.095-1.761-4.269-1.228-1.174-2.615-1.761-4.322-1.761-1.654 0-3.095 0.587-4.269 1.761-1.227 1.227-1.761 2.615-1.761 4.269 0 1.708 0.587 3.095 1.761 4.323 1.174 1.227 2.615 1.761 4.269 1.761 1.707 0 3.094-0.587 4.322-1.761 1.174-1.228 1.761-2.615 1.761-4.323zm-3.415 2.615c-0.747 0.747-1.601 1.121-2.668 1.121-1.014 0-1.921-0.374-2.668-1.121s-1.121-1.601-1.121-2.668c0-1.068 0.374-1.921 1.121-2.669 0.747-0.747 1.601-1.12 2.668-1.12 1.014 0 1.921 0.373 2.668 1.12 0.747 0.748 1.12 1.601 1.12 2.669 0 1.067-0.373 1.974-1.12 2.668z" opacity=".29"/>
<path d="m545.31 215.12c0 1.708 0.587 3.095 1.761 4.323 1.227 1.227 2.614 1.761 4.322 1.761 1.654 0 3.094-0.587 4.268-1.761 1.227-1.228 1.761-2.615 1.761-4.323s-0.587-3.096-1.761-4.323c-1.227-1.227-2.614-1.761-4.268-1.761-1.708 0-3.095 0.587-4.322 1.761-1.174 1.227-1.761 2.615-1.761 4.323zm3.468-2.669c0.747-0.747 1.601-1.12 2.668-1.12 1.014 0 1.921 0.373 2.668 1.12 0.747 0.748 1.12 1.601 1.12 2.669 0 1.014-0.373 1.921-1.12 2.668s-1.601 1.121-2.668 1.121c-1.014 0-1.921-0.374-2.668-1.121s-1.12-1.601-1.12-2.668c0-1.068 0.373-1.921 1.12-2.669z" opacity=".29"/>
<path d="m405.46 143.88c-1.227 8.432 0.907 16.864 6.029 23.749 6.083 8.165 15.474 12.861 25.665 12.861 6.937 0 13.499-2.188 19.102-6.35 6.83-5.124 11.312-12.595 12.539-21.027s-0.907-16.864-6.029-23.749c-6.083-8.165-15.474-12.861-25.665-12.861-6.937 0-13.5 2.188-19.102 6.351-6.883 5.123-11.312 12.594-12.539 21.026zm2.828 0.427c0.96-6.671 4.108-12.648 9.017-17.131v25.617h-9.017c-0.374-2.775-0.374-5.657 0-8.486zm52.076-13.181c4.643 6.244 6.563 13.875 5.443 21.56-1.121 7.685-5.176 14.463-11.365 19.105-5.069 3.79-11.045 5.764-17.341 5.764-9.284 0-17.768-4.269-23.317-11.687-2.295-3.096-3.949-6.511-4.856-10.14h9.018c1.28 0 2.294-1.014 2.294-2.295v-28.231c0-0.107 0-0.214-0.053-0.32 3.308-2.349 6.989-4.003 10.884-4.803v33.407c0 1.281 1.014 2.295 2.295 2.295h15.207c1.28 0 2.294-1.014 2.294-2.295v-30.579c3.628 1.921 6.936 4.696 9.497 8.219zm-12.378-9.607c-0.054 0.107-0.054 0.214-0.054 0.321v30.953h-13.979v-33.248c1.013-0.107 2.027-0.16 3.094-0.16 3.842 0.053 7.524 0.747 10.939 2.134z" opacity=".29"/>
<path d="m392.44 141.96c-1.761 11.901 1.28 23.802 8.484 33.462 8.59 11.527 21.769 18.144 36.176 18.144 6.563 0 12.966-1.387 18.835-4.109l7.843 10.514c-1.12 1.494-1.174 3.575 0 5.069l16.915 22.895c2.294 3.095 5.976 4.91 9.764 4.91 2.668 0 5.176-0.854 7.256-2.402 2.615-1.921 4.322-4.803 4.803-8.005 0.48-3.202-0.321-6.457-2.295-9.072l-16.914-22.842c-0.8-1.067-2.081-1.707-3.415-1.707-0.32 0-0.64 0.053-0.96 0.106l-7.95-10.673c5.709-6.511 9.444-14.516 10.724-23.268 1.761-11.901-1.28-23.802-8.483-33.462-5.763-7.738-13.553-13.235-22.41-16.01v-62.493c0-1.2808-1.014-2.2948-2.295-2.2948h-15.207c-1.28 0-2.294 1.014-2.294 2.2948v60.732c-3.735 0.48-7.363 1.441-10.831 2.882v-27.057c0-1.2808-1.014-2.2948-2.295-2.2948h-15.207c-1.28 0-2.294 1.014-2.294 2.2948v41.199c0 0.374 0.107 0.694 0.32 0.908-4.322 5.87-7.203 12.808-8.27 20.279zm76.514 38.478 7.417 9.98-10.405 7.738-7.47-9.98c1.867-1.014 3.735-2.188 5.496-3.522 1.814-1.281 3.415-2.722 4.962-4.216zm12.059 11.848 16.914 22.894c1.494 1.975 2.081 4.43 1.761 6.885-0.374 2.454-1.654 4.643-3.629 6.083-1.6 1.228-3.521 1.868-5.549 1.868-2.988 0-5.709-1.387-7.47-3.735l-16.914-22.895c-0.427-0.587-0.32-1.441 0.267-1.868l12.752-9.499c0.214-0.16 0.534-0.267 0.801-0.267 0.426 0 0.8 0.16 1.067 0.534zm-10.085-69.004c6.723 9.019 9.551 20.172 7.95 31.326-1.6 11.154-7.523 21.027-16.54 27.751-1.921 1.441-3.949 2.669-6.03 3.736-0.32 0-0.587 0.107-0.853 0.267-0.107 0.107-0.214 0.16-0.267 0.267-5.603 2.668-11.739 4.056-18.035 4.056-13.499 0-25.825-6.191-33.882-16.971-6.723-9.019-9.551-20.173-7.95-31.327s7.523-21.027 16.541-27.751c7.363-5.497 16.06-8.379 25.184-8.379 13.5 0 25.825 6.191 33.882 17.025zm-36.976-79.624h13.979v61.052c-3.521-0.854-7.15-1.281-10.885-1.281-1.013 0-2.027 0.053-3.094 0.107v-59.878zm-30.574 36.557h13.98v27.751c-2.508 1.228-4.909 2.669-7.204 4.376-2.507 1.868-4.748 3.949-6.776 6.191v-38.318z" opacity=".29"/>
<path d="m387.43 155.73c1.174 0 2.135-0.961 2.135-2.135v-39.065c0-1.174-0.961-2.134-2.135-2.134h-15.473c-1.174 0-2.135 0.96-2.135 2.134v39.065c0 1.174 0.961 2.135 2.135 2.135h15.473zm-14.726-40.453h13.979v37.518h-13.979v-37.518z" opacity=".29"/>
<path d="m451.99 115.49c4.322 2.135 8.164 4.963 11.365 8.539 4.002 4.429 6.937 9.873 8.431 15.636 0.16 0.641 0.747 1.068 1.387 1.068 0.107 0 0.267 0 0.374-0.054 0.8-0.213 1.227-1.014 1.013-1.761-1.654-6.244-4.802-12.114-9.124-16.864-3.468-3.842-7.576-6.938-12.272-9.179-0.747-0.374-1.601-0.053-1.921 0.694-0.266 0.694 0.054 1.547 0.747 1.921z" opacity=".29"/>
<path d="m474.18 143.66c-0.8 0.107-1.387 0.8-1.281 1.601 0.107 1.174 0.214 2.401 0.214 3.629 0 0.8 0.64 1.441 1.44 1.441 0.801 0 1.441-0.641 1.441-1.441 0-1.281-0.107-2.615-0.213-3.896-0.107-0.854-0.854-1.441-1.601-1.334z" opacity=".29"/>
<path d="m141.98 40.079v37.998c0 1.4409 1.174 2.615 2.615 2.615h72.459c1.44 0 2.614-1.1741 2.614-2.615v-37.998c0-1.441-1.174-2.615-2.614-2.615h-72.406c-1.494 0-2.668 1.174-2.668 2.615zm2.935 0.2668h71.925v37.464h-71.925v-37.464z" opacity=".29"/>
<path d="m207.08 45.149v-1.4409h-21.183l3.575 2.615c5.123 3.7357 5.763 8.9123 5.763 13.022 0 5.1766-1.974 9.9797-5.122 12.541l-3.202 2.5616h20.169v-1.4409c0-2.9885 2.615-4.3761 5.016-4.3761h1.44v-16.544h-1.44c-2.295 0.0534-5.016-3.7357-5.016-6.9377zm3.575 20.706c-2.988 0.4803-5.763 2.4015-6.349 5.7103h-9.925c2.401-3.202 3.788-7.6315 3.788-12.221 0-3.629-0.48-8.5922-4.108-12.755h10.245c0.586 3.5756 3.201 7.3113 6.349 8.2186v11.047z" opacity=".29"/>
<path d="m164.93 59.344c0-5.4435 2.188-10.407 5.762-13.022l3.575-2.615h-19.795v1.4409c0 3.202-2.668 6.9911-4.909 6.9911h-1.441v16.544h1.441c2.348 0 4.909 1.3875 4.909 4.3761v1.4409h18.782l-3.202-2.5616c-3.148-2.615-5.122-7.4181-5.122-12.595zm-7.63 12.221c-0.587-2.9886-2.988-5.23-6.243-5.7103v-11.047c3.148-0.9073 5.709-4.643 6.243-8.2186h8.964c-2.668 3.3088-4.215 7.8984-4.215 12.755 0 4.5896 1.387 9.0191 3.788 12.221h-8.537z" opacity=".29"/>
<path d="m184.99 60.625c-0.533-0.4803-1.174-0.9072-1.974-1.2808-0.534-0.2668-1.174-0.5337-1.921-0.8539v-6.8844c0.854 0.1068 1.654 0.2669 2.455 0.5337 0.213 0.0534 0.373 0.1067 0.586 0.1067 0.908 0 1.601-0.6937 1.601-1.4942 0-0.6405-0.427-1.1741-1.014-1.441-1.067-0.3735-2.294-0.587-3.628-0.6404v-1.9212c0-0.8005-0.64-1.4409-1.441-1.4409-0.8 0-1.44 0.6404-1.44 1.4409v2.1347c-0.267 0.0534-0.534 0.1067-0.801 0.1601-0.96 0.2668-1.814 0.6404-2.561 1.1741s-1.387 1.1207-1.814 1.8678c-0.48 0.7472-0.693 1.6011-0.693 2.5617 0 0.7471 0.106 1.4409 0.373 2.0279 0.267 0.5871 0.64 1.1741 1.121 1.6544 0.48 0.4803 1.12 0.9606 1.867 1.3342 0.694 0.3736 1.547 0.7471 2.508 1.1207v6.6709c-0.374 0-0.747-0.0533-1.121-0.1067-0.48-0.1067-1.013-0.2135-1.494-0.3736-0.427-0.1601-1.013-0.3202-1.227-0.3735-0.747-0.3736-2.134 0.1601-2.134 1.1207v0.4803c0 0.4269 0.267 0.8539 0.693 1.0673 1.441 0.6938 3.255 1.0674 5.229 1.0674v2.3481c0 0.8005 0.641 1.4409 1.441 1.4409s1.441-0.6404 1.441-1.4409v-2.6683c0.106-0.0534 0.267-0.0534 0.373-0.0534 1.014-0.2668 1.921-0.6404 2.668-1.1207 0.747-0.5337 1.387-1.1741 1.814-1.9212 0.427-0.7472 0.641-1.6011 0.641-2.5617 0-0.8005-0.107-1.4943-0.374-2.0813-0.213-0.6404-0.64-1.1741-1.174-1.6544zm-6.83-3.3621c-0.533-0.2669-1.013-0.5337-1.333-0.8005-0.321-0.2669-0.534-0.5337-0.694-0.8539s-0.214-0.6938-0.214-1.1207c0-0.427 0.107-0.8005 0.267-1.1207 0.214-0.3736 0.48-0.6405 0.801-0.9073 0.32-0.2668 0.747-0.4269 1.227-0.587v5.4968l-0.054-0.1067zm2.935 4.6963c0.267 0.1601 0.534 0.3202 0.747 0.4803 0.374 0.2668 0.694 0.587 0.907 0.9072 0.214 0.3202 0.267 0.6938 0.267 1.1208 0 1.3341-0.64 2.188-1.921 2.615v-5.1233z" opacity=".29"/>
<path d="m135.9 34.369v38.691c0 0.8005 0.64 1.4409 1.44 1.4409 0.801 0 1.441-0.6404 1.441-1.4409v-38.478h74.22c0.8 0 1.44-0.6404 1.44-1.4409s-0.64-1.4409-1.44-1.4409h-74.434c-1.44 0-2.667 1.1741-2.667 2.6684z" opacity=".29"/>
<path d="m131.1 67.776c0.8 0 1.44-0.6404 1.44-1.4409v-37.837h74.006c0.801 0 1.441-0.6404 1.441-1.4409 0-0.8006-0.64-1.441-1.441-1.441h-74.219c-1.494 0-2.668 1.1741-2.668 2.6684v38.051c0 0.8005 0.64 1.4409 1.441 1.4409z" opacity=".29"/>
<path d="m394.47 343.95h-14.139c-3.255 0-5.923 2.668-5.923 5.923v14.143c0 3.255 2.668 5.923 5.923 5.923h14.139c3.255 0 5.923-2.668 5.923-5.923v-14.143c0.053-3.255-2.614-5.923-5.923-5.923zm3.042 20.066c0 1.654-1.334 3.042-3.042 3.042h-14.139c-1.654 0-3.042-1.335-3.042-3.042v-14.143c0-1.654 1.334-3.042 3.042-3.042h14.139c1.654 0 3.042 1.335 3.042 3.042v14.143z" opacity=".29"/>
<path d="m394.47 373.89h-14.139c-3.255 0-5.923 2.668-5.923 5.923v14.143c0 3.255 2.668 5.924 5.923 5.924h14.139c3.255 0 5.923-2.669 5.923-5.924v-14.143c0.053-3.255-2.614-5.923-5.923-5.923zm3.042 20.066c0 1.654-1.334 3.042-3.042 3.042h-14.139c-1.654 0-3.042-1.334-3.042-3.042v-14.143c0-1.654 1.334-3.042 3.042-3.042h14.139c1.654 0 3.042 1.335 3.042 3.042v14.143z" opacity=".29"/>
<path d="m377.66 326.66h74.807c1.92 0 3.521-1.601 3.521-3.523v-14.889c0-1.921-1.601-3.522-3.521-3.522h-74.807c-1.921 0-3.522 1.601-3.522 3.522v14.889c0 1.922 1.548 3.523 3.522 3.523zm-0.64-18.412c0-0.32 0.266-0.587 0.587-0.587h74.86c0.32 0 0.587 0.267 0.587 0.587v14.889c0 0.32-0.267 0.587-0.587 0.587h-74.807c-0.32 0-0.587-0.267-0.587-0.587v-14.889h-0.053z" opacity=".29"/>
<path d="m392.76 355.53h-3.895v-3.896c0-0.8-0.64-1.44-1.441-1.44-0.8 0-1.44 0.64-1.44 1.44v3.896h-3.896c-0.8 0-1.44 0.641-1.44 1.441 0 0.801 0.64 1.441 1.44 1.441h3.896v3.896c0 0.8 0.64 1.441 1.44 1.441 0.801 0 1.441-0.641 1.441-1.441v-3.896h3.895c0.8 0 1.441-0.64 1.441-1.441 0-0.8-0.641-1.441-1.441-1.441z" opacity=".29"/>
<path d="m391.38 385.42h-7.31c-0.801 0-1.441 0.64-1.441 1.441 0 0.8 0.64 1.441 1.441 1.441h7.31c0.8 0 1.44-0.641 1.44-1.441 0-0.801-0.587-1.441-1.44-1.441z" opacity=".29"/>
<path d="m446.65 367.91h-7.31c-0.801 0-1.441 0.641-1.441 1.441 0 0.801 0.64 1.441 1.441 1.441h7.31c0.8 0 1.44-0.64 1.44-1.441 0-0.8-0.64-1.441-1.44-1.441z" opacity=".29"/>
<path d="m489.44 441.72-2.721 0.853c0-0.106 0-0.266-0.054-0.373l-1.494-6.137v-0.107c-0.106-0.374-0.16-0.801-0.106-1.174l0.747-9.233c0.266-3.469-0.16-6.884-1.334-10.193l-12.486-36.023c-0.96-2.722-3.095-4.643-5.602-5.443v-69.698c0-5.337-4.322-9.66-9.658-9.66h-83.504c-5.336 0-9.657 4.323-9.657 9.66v97.235c0 5.39 4.375 9.766 9.764 9.766h38.524c-0.374 3.736 0.106 7.579 1.387 11.101l1.868 6.244 0.053 0.107c1.867 5.069 5.389 9.499 9.978 12.434l13.446 8.646c0.587 0.373 1.013 0.96 1.28 1.601l2.028 5.763-2.081 0.694c-0.747 0.267-1.174 1.067-0.961 1.815 0.214 0.64 0.747 1.014 1.388 1.014 0.16 0 0.32 0 0.427-0.054l49.728-15.957c0.747-0.266 1.174-1.067 0.961-1.814-0.32-0.907-1.174-1.334-1.921-1.067zm-32.868-144.31c3.788 0 6.83 3.042 6.83 6.831v29.672h-96.95v-29.672c0-3.789 3.041-6.831 6.83-6.831h83.29zm-90.12 104.01v-64.574h96.95v36.61c-0.801 0.053-1.601 0.16-2.401 0.427l-5.016 1.601h-0.053v-25.937c0-3.255-2.668-5.924-5.923-5.924h-14.086c-3.255 0-5.923 2.669-5.923 5.924v26.791l-2.774-9.073c0.693-0.961 1.013-2.135 1.013-3.309v-14.142c0-3.255-2.667-5.924-5.922-5.924h-14.14c-3.255 0-5.923 2.669-5.923 5.924v14.142c0 3.256 2.668 5.924 5.923 5.924h2.455l1.227 3.949h-3.735c-3.255 0-5.923 2.669-5.923 5.924v14.142c0 3.256 2.668 5.924 5.923 5.924h6.883l-2.668 8.059-0.053 0.106c0 0.054-0.054 0.16-0.054 0.214h-0.053-38.951c-3.681 0.053-6.776-2.989-6.776-6.778zm76.301-24.015c-0.267-0.214-0.534-0.427-0.801-0.587h1.921l-0.48 0.16c-0.267 0.053-0.48 0.213-0.64 0.427zm3.895-3.522h-7.31c-0.801 0-1.441 0.64-1.441 1.441-1.12-0.107-2.294 0-3.468 0.373l-1.494 0.48v-26.577c0-1.654 1.334-3.041 3.041-3.041h14.14c1.654 0 3.041 1.334 3.041 3.041v25.617c-1.547-0.374-3.148-0.374-4.749 0.16l-0.213 0.053v-0.106c-0.107-0.801-0.747-1.441-1.547-1.441zm-39.165-14.036 2.241 7.205h-1.547c-1.654 0-3.041-1.335-3.041-3.042v-14.143c0-1.654 1.334-3.042 3.041-3.042h14.14c1.654 0 3.041 1.335 3.041 3.042v11.314l-1.921-6.244c-0.64-2.134-2.081-3.896-4.108-4.963-1.974-1.067-4.269-1.227-6.403-0.587-4.375 1.441-6.776 6.084-5.443 10.46zm9.978 32.714-1.44 4.376h-7.844c-1.654 0-3.041-1.334-3.041-3.042v-14.142c0-1.654 1.334-3.042 3.041-3.042h4.642l4.856 15.423c-0.107 0.214-0.16 0.32-0.214 0.427zm25.078 57.69c-0.427-1.281-1.28-2.348-2.454-3.095l-13.446-8.646c-4.002-2.561-7.15-6.457-8.804-10.94l-1.868-6.244-0.053-0.107c-1.281-3.522-1.654-7.364-1.067-11.1 0.053-0.48 0.16-0.961 0.267-1.441l3.948-11.901 8.644 27.431c0.213 0.64 0.747 1.014 1.387 1.014 0.16 0 0.267 0 0.427-0.053 0.747-0.267 1.174-1.068 0.96-1.815l-20.275-64.468c-0.854-2.828 0.747-5.87 3.521-6.777 1.388-0.427 2.882-0.32 4.162 0.373 1.281 0.694 2.241 1.815 2.668 3.256l12.059 39.171c0.213 0.748 1.067 1.174 1.814 0.961 0.747-0.214 1.174-1.067 0.96-1.815l-4.428-14.302 4.268-1.388c2.988-0.96 6.296 0.694 7.31 3.683l2.881 8.432c0.214 0.587 0.747 0.96 1.388 0.96 0.16 0 0.32 0 0.48-0.053 0.747-0.267 1.174-1.067 0.907-1.868l-2.881-8.432c-0.214-0.587-0.427-1.067-0.747-1.601l4.588-1.494c2.988-0.961 6.297 0.694 7.31 3.682l1.814 5.337c0.214 0.587 0.747 0.961 1.388 0.961 0.16 0 0.32 0 0.48-0.054 0.747-0.267 1.174-1.067 0.907-1.868l-1.814-5.336c-0.374-1.068-0.907-2.028-1.601-2.829l4.269-1.387c3.041-0.961 6.243 0.587 7.31 3.629l12.485 36.023c1.014 2.881 1.387 5.923 1.174 9.019l-0.747 9.232c-0.053 0.747 0 1.494 0.213 2.242l1.494 6.137c0.054 0.213 0.161 0.373 0.267 0.534l-39.537 12.701-2.028-5.764z" opacity=".29"/>
<path d="m59.173 246.88-0.0534-6.617v-1.281c0-0.267-0.0533-0.534-0.2134-0.747-0.3735-2.028-1.3873-3.896-2.8813-5.337 0.0534-0.16 0.1067-0.373 0.1067-0.534l-0.1067-4.269c0-1.868-0.8004-3.682-2.0809-4.963-1.2272-1.174-2.828-1.815-4.4287-1.815-1.0138 0-1.9742 0.267-2.8813 0.748-2.1876 1.174-3.5749 3.575-3.5215 6.19l0.1067 4.27c0 0.16 0.0533 0.32 0.1067 0.48-1.494 1.494-2.4544 3.415-2.7746 5.497-0.1067 0.213-0.16 0.427-0.16 0.64v12.381h-2.5612c-2.1876 0-4.0018 1.868-4.0018 4.163v19.372c0 0.801 0.6403 1.441 1.4407 1.441 0.8003 0 1.4406-0.64 1.4406-1.441v-19.372c0-0.694 0.4802-1.281 1.0672-1.281h2.5611l0.0534 98.943h0.1067c0.0533 0.16 0.1067 0.32 0.16 0.481l7.1499 15.529c0.3735 0.854 1.2272 1.388 2.1343 1.388 0.9604 0 1.7608-0.534 2.1343-1.441l6.8297-15.637c0.0533-0.16 0.1067-0.32 0.1601-0.533h0.1067l-0.0534-49.632v-0.267-0.267-4.856c0-0.107 0.0534-0.213 0.0534-0.267 0-0.107 0-0.213-0.0534-0.267l-0.0533-50.752 0.1067 0.053zm-9.2842 120.13-6.2428-13.555 12.219-0.107-5.976 13.662zm6.2962-126.75v3.736l-12.912 0.16-0.0533-3.736v-0.053c0-1.975 0.6936-3.843 2.0276-5.177l8.8572-0.107c1.334 1.334 2.081 3.202 2.081 5.177zm-8.1637-15.69c0.4802-0.267 1.0138-0.374 1.494-0.427 0.9071-0.054 1.7075 0.32 2.4011 1.014 0.747 0.747 1.2272 1.814 1.2272 2.935l0.1067 4.056-7.1498 0.053-0.1067-4.056c0-1.494 0.8003-2.881 2.0275-3.575zm8.217 125.73-12.966 0.16v-45.682h12.966v45.522zm-12.966-48.457v-2.509h12.966v2.509h-12.966zm12.966-5.39h-12.966v-42h12.966v42zm-0.0533-44.936h-12.966v-4.483l12.966-0.16v4.643z" opacity=".29"/>
<path d="m286.53 325.86c-4.696 0-8.537 3.842-8.537 8.539 0 1.227 0.267 2.401 0.8 3.522-0.48 1.067-0.8 2.295-0.8 3.522 0 4.697 3.841 8.539 8.537 8.539 4.695 0 8.537-3.842 8.537-8.539 0-1.281-0.267-2.455-0.747-3.522 0.534-1.121 0.747-2.295 0.747-3.522 0-4.697-3.842-8.539-8.537-8.539zm0 2.935c3.095 0 5.602 2.508 5.602 5.604 0 0.213 0 0.427-0.053 0.64-1.494-1.281-3.468-2.081-5.602-2.081-2.135 0-4.109 0.8-5.603 2.081 0-0.213-0.053-0.427-0.053-0.64 0.053-3.096 2.614-5.604 5.709-5.604zm0 18.305c-3.095 0-5.603-2.508-5.603-5.603 0-3.096 2.508-5.604 5.603-5.604s5.602 2.508 5.602 5.604c0 3.095-2.507 5.603-5.602 5.603z" opacity=".29"/>
<path d="m264.81 199.11v36.716c0 2.989 2.401 5.39 5.389 5.39h54.05c2.988 0 5.389-2.401 5.389-5.39v-36.716c0-2.989-2.401-5.391-5.389-5.391h-54.05c-2.935 0-5.389 2.402-5.389 5.391zm61.894 0v36.716c0 1.388-1.121 2.455-2.455 2.455h-54.05c-1.388 0-2.455-1.121-2.455-2.455v-36.716c0-1.388 1.121-2.455 2.455-2.455h54.05c1.388-0.054 2.455 1.067 2.455 2.455z" opacity=".29"/>
<path d="m280.82 247.52h-10.565c-2.348 0-4.215 1.868-4.215 4.216v5.39c0 2.348 1.867 4.216 4.215 4.216h10.565c2.347 0 4.215-1.868 4.215-4.216v-5.39c0-2.348-1.868-4.216-4.215-4.216zm1.28 9.606c0 0.747-0.587 1.334-1.334 1.334h-10.564c-0.747 0-1.334-0.587-1.334-1.334v-5.39c0-0.747 0.587-1.334 1.334-1.334h10.564c0.747 0 1.334 0.587 1.334 1.334v5.39z" opacity=".29"/>
<path d="m302.96 247.52h-10.565c-2.348 0-4.215 1.868-4.215 4.216v5.39c0 2.348 1.867 4.216 4.215 4.216h10.565c2.348 0 4.215-1.868 4.215-4.216v-5.39c0-2.348-1.921-4.216-4.215-4.216zm1.28 9.606c0 0.747-0.586 1.334-1.333 1.334h-10.565c-0.747 0-1.334-0.587-1.334-1.334v-5.39c0-0.747 0.587-1.334 1.334-1.334h10.565c0.747 0 1.333 0.587 1.333 1.334v5.39z" opacity=".29"/>
<path d="m325.05 247.52h-10.565c-2.348 0-4.215 1.868-4.215 4.216v5.39c0 2.348 1.867 4.216 4.215 4.216h10.565c2.347 0 4.215-1.868 4.215-4.216v-5.39c0-2.348-1.868-4.216-4.215-4.216zm1.334 9.606c0 0.747-0.587 1.334-1.334 1.334h-10.565c-0.747 0-1.334-0.587-1.334-1.334v-5.39c0-0.747 0.587-1.334 1.334-1.334h10.565c0.747 0 1.334 0.587 1.334 1.334v5.39z" opacity=".29"/>
<path d="m280.82 266.62h-10.565c-2.348 0-4.215 1.868-4.215 4.216v5.39c0 2.349 1.867 4.216 4.215 4.216h10.565c2.347 0 4.215-1.867 4.215-4.216v-5.39c0-2.294-1.868-4.216-4.215-4.216zm1.28 9.606c0 0.748-0.587 1.335-1.334 1.335h-10.564c-0.747 0-1.334-0.587-1.334-1.335v-5.39c0-0.747 0.587-1.334 1.334-1.334h10.564c0.747 0 1.334 0.587 1.334 1.334v5.39z" opacity=".29"/>
<path d="m302.96 266.62h-10.565c-2.348 0-4.215 1.868-4.215 4.216v5.39c0 2.349 1.867 4.216 4.215 4.216h10.565c2.348 0 4.215-1.867 4.215-4.216v-5.39c0-2.294-1.921-4.216-4.215-4.216zm1.28 9.606c0 0.748-0.586 1.335-1.333 1.335h-10.565c-0.747 0-1.334-0.587-1.334-1.335v-5.39c0-0.747 0.587-1.334 1.334-1.334h10.565c0.747 0 1.333 0.587 1.333 1.334v5.39z" opacity=".29"/>
<path d="m325.05 266.62h-10.565c-2.348 0-4.215 1.868-4.215 4.216v5.39c0 2.349 1.867 4.216 4.215 4.216h10.565c2.347 0 4.215-1.867 4.215-4.216v-5.39c0-2.294-1.868-4.216-4.215-4.216zm1.334 9.606c0 0.748-0.587 1.335-1.334 1.335h-10.565c-0.747 0-1.334-0.587-1.334-1.335v-5.39c0-0.747 0.587-1.334 1.334-1.334h10.565c0.747 0 1.334 0.587 1.334 1.334v5.39z" opacity=".29"/>
<path d="m280.82 285.78h-10.565c-2.348 0-4.215 1.868-4.215 4.216v5.39c0 2.348 1.867 4.216 4.215 4.216h10.565c2.347 0 4.215-1.868 4.215-4.216v-5.39c0-2.348-1.868-4.216-4.215-4.216zm1.28 9.606c0 0.747-0.587 1.334-1.334 1.334h-10.564c-0.747 0-1.334-0.587-1.334-1.334v-5.39c0-0.747 0.587-1.334 1.334-1.334h10.564c0.747 0 1.334 0.587 1.334 1.334v5.39z" opacity=".29"/>
<path d="m302.96 285.78h-10.565c-2.348 0-4.215 1.868-4.215 4.216v5.39c0 2.348 1.867 4.216 4.215 4.216h10.565c2.348 0 4.215-1.868 4.215-4.216v-5.39c0-2.348-1.921-4.216-4.215-4.216zm1.28 9.606c0 0.747-0.586 1.334-1.333 1.334h-10.565c-0.747 0-1.334-0.587-1.334-1.334v-5.39c0-0.747 0.587-1.334 1.334-1.334h10.565c0.747 0 1.333 0.587 1.333 1.334v5.39z" opacity=".29"/>
<path d="m325.05 285.78h-10.565c-2.348 0-4.215 1.868-4.215 4.216v5.39c0 2.348 1.867 4.216 4.215 4.216h10.565c2.347 0 4.215-1.868 4.215-4.216v-5.39c0-2.348-1.868-4.216-4.215-4.216zm1.334 9.606c0 0.747-0.587 1.334-1.334 1.334h-10.565c-0.747 0-1.334-0.587-1.334-1.334v-5.39c0-0.747 0.587-1.334 1.334-1.334h10.565c0.747 0 1.334 0.587 1.334 1.334v5.39z" opacity=".29"/>
<path d="m299.65 151.46h-16.541c-0.8 0-1.441 0.64-1.441 1.44 0 0.801 0.641 1.441 1.441 1.441h16.541c0.8 0 1.44-0.64 1.44-1.441 0-0.8-0.64-1.44-1.44-1.44z" opacity=".29"/>
<path d="m311.02 151.46h-4.802c-0.801 0-1.441 0.64-1.441 1.44 0 0.801 0.64 1.441 1.441 1.441h4.802c0.8 0 1.44-0.64 1.44-1.441 0.054-0.8-0.586-1.44-1.44-1.44z" opacity=".29"/>
<path d="m299.65 160.21h-16.541c-0.8 0-1.441 0.64-1.441 1.441 0 0.8 0.641 1.441 1.441 1.441h16.541c0.8 0 1.44-0.641 1.44-1.441 0-0.747-0.64-1.441-1.44-1.441z" opacity=".29"/>
<path d="m311.02 160.21h-4.802c-0.801 0-1.441 0.64-1.441 1.441 0 0.8 0.64 1.441 1.441 1.441h4.802c0.8 0 1.44-0.641 1.44-1.441 0.054-0.747-0.586-1.441-1.44-1.441z" opacity=".29"/>
<path d="m299.65 169.01h-16.541c-0.8 0-1.441 0.641-1.441 1.441 0 0.801 0.641 1.441 1.441 1.441h16.541c0.8 0 1.44-0.64 1.44-1.441 0-0.8-0.64-1.441-1.44-1.441z" opacity=".29"/>
<path d="m311.02 169.01h-4.802c-0.801 0-1.441 0.641-1.441 1.441 0 0.801 0.64 1.441 1.441 1.441h4.802c0.8 0 1.44-0.64 1.44-1.441 0.054-0.8-0.586-1.441-1.44-1.441z" opacity=".29"/>
<path d="m299.65 177.77h-16.541c-0.8 0-1.441 0.64-1.441 1.441 0 0.8 0.641 1.44 1.441 1.44h16.541c0.8 0 1.44-0.64 1.44-1.44 0-0.801-0.64-1.441-1.44-1.441z" opacity=".29"/>
<path d="m311.02 177.77h-4.802c-0.801 0-1.441 0.64-1.441 1.441 0 0.8 0.64 1.44 1.441 1.44h4.802c0.8 0 1.44-0.64 1.44-1.44 0-0.801-0.587-1.441-1.44-1.441z" opacity=".29"/>
<path d="m293.3 225.96c0.267 0.374 0.694 0.534 1.121 0.534 0.32 0 0.64-0.107 0.907-0.32l14.193-11.474c0.64-0.48 0.747-1.441 0.213-2.028-0.48-0.641-1.44-0.747-2.027-0.214l-14.193 11.474c-0.641 0.534-0.694 1.441-0.214 2.028z" opacity=".29"/>
<path d="m281.51 226.92c0.32 0 0.641-0.107 0.907-0.32l24.651-20.547c0.641-0.533 0.694-1.441 0.16-2.028-0.533-0.64-1.44-0.693-2.027-0.16l-24.651 20.547c-0.64 0.533-0.694 1.441-0.16 2.028 0.267 0.32 0.693 0.48 1.12 0.48z" opacity=".29"/>
<path d="m273.08 134.7c-0.747 0.694-1.281 1.601-1.334 2.669-0.8 11.367-1.014 22.841-0.694 34.261h-3.201c-6.563 0-11.952 5.337-11.952 11.955v132.3c0 6.565 5.336 11.955 11.952 11.955h1.814v22.787c0 3.629 2.988 6.618 6.616 6.618h43.7c3.628 0 6.616-2.989 6.616-6.618v-23.001c0.214 0.107 0.427 0.214 0.694 0.214 6.563 0 11.952-5.337 11.952-11.955v-132.3c0-6.565-5.336-11.955-11.952-11.955h-3.842c-0.267-8.485-0.213-17.024 0.16-25.456h8.164l-0.054-1.494c-0.16-6.031-5.175-10.94-11.205-10.994h-0.053-45.727c-0.64 0-1.281 0.427-1.654 1.014zm-5.176 190.2c-4.962 0-9.017-4.056-9.017-9.019v-6.03c2.188 2.508 5.442 4.162 9.017 4.162h1.814v10.887h-1.814zm52.13 29.459h-43.699c-2.028 0-3.735-1.654-3.735-3.736v-36.663h51.116v36.663c0.053 2.082-1.654 3.736-3.682 3.736zm16.327-38.478c0 4.963-4.055 9.019-9.017 9.019-0.267 0-0.48 0.054-0.694 0.214v-11.101h0.694c3.575 0 6.83-1.601 9.017-4.162v6.03zm-9.017-141.32c4.962 0 9.017 4.056 9.017 9.019v118.48c0 4.963-4.055 9.019-9.017 9.019h-1.761c-0.16-0.053-0.266-0.053-0.427-0.053-0.16 0-0.266 0.053-0.426 0.053h-56.826c-4.962 0-9.017-4.056-9.017-9.019v-118.48c0-4.963 4.055-9.019 9.017-9.019h3.308c0.16 3.575 0.321 7.151 0.587 10.726 0.16 2.028 1.921 3.683 3.949 3.683h44.873c1.014 0 1.974-0.427 2.668-1.121 0.694-0.747 1.014-1.708 0.96-2.722-0.266-3.469-0.426-6.991-0.587-10.513h3.682v-0.053zm-6.083 10.673c0 0.267-0.106 0.427-0.16 0.534-0.106 0.106-0.266 0.213-0.533 0.213h-44.874c-0.533 0-1.013-0.427-1.067-0.96-1.12-15.424-1.12-31.007-0.053-46.43 1.227 1.814 1.921 3.949 1.974 6.137l0.053 1.441h44.18c-0.587 12.968-0.427 26.15 0.48 39.065zm-0.693-48.618c4.002 0 7.363 2.882 8.163 6.671h-49.302c-0.266-2.401-1.173-4.696-2.614-6.671h43.753z" opacity=".29"/>
<path d="m212.95 455.44c3.629 0 6.617-2.989 6.617-6.618v-25.136c0-0.16-0.054-0.373-0.107-0.533h14.94c1.441 0 2.561-1.174 2.561-2.562v-22.895-0.16l7.737-7.578c0.427-0.427 0.64-0.96 0.64-1.547s-0.213-1.121-0.64-1.548l-2.615-2.508c-0.8-0.801-2.241-0.801-3.041 0l-2.081 2.081v-0.107c0-1.441-1.174-2.561-2.561-2.561h-14.833v-102.47c0-3.629-2.988-6.617-6.617-6.617h-14.993v-2.082c0-2.294-1.867-4.216-4.215-4.216h-15.314c-2.294 0-4.215 1.868-4.215 4.216v2.082h-6.936v-2.082c0-2.294-1.868-4.216-4.216-4.216h-15.313c-2.294 0-4.215 1.868-4.215 4.216v2.082h-6.937v-2.082c0-2.294-1.867-4.216-4.215-4.216h-15.313c-2.295 0-4.216 1.868-4.216 4.216v2.082h-26.838c-4.642 0-8.4304 3.789-8.4304 8.432v7.525h-2.3477c-2.3477 0-4.2152 1.921-4.2152 4.216v0.213c0 2.348 1.9208 4.216 4.2152 4.216h2.5611v17.932h-2.5611c-2.3477 0-4.2152 1.921-4.2152 4.216v0.213c0 2.348 1.9208 4.216 4.2152 4.216h2.5611v17.931h-2.5611c-2.3477 0-4.2152 1.922-4.2152 4.216v0.214c0 2.348 1.9208 4.216 4.2152 4.216h2.5611v17.931h-2.5611c-2.3477 0-4.2152 1.922-4.2152 4.216v0.214c0 2.348 1.9208 4.216 4.2152 4.216h2.5611v17.931h-2.5611c-2.3477 0-4.2152 1.922-4.2152 4.216v0.214c0 2.348 1.9208 4.216 4.2152 4.216h2.5611v17.931h-2.5611c-2.3477 0-4.2152 1.921-4.2152 4.216v0.214c0 2.348 1.9208 4.216 4.2152 4.216h2.5611v15.156c0 4.643 3.7884 8.432 8.4305 8.432h18.782v-0.267h107.94v-0.053zm3.682-31.754v25.136c0 2.028-1.654 3.736-3.735 3.736h-107.89v-2.668h101.48c3.628 0 6.616-2.989 6.616-6.618v-19.746c0-0.106 0-0.213-0.053-0.373h3.682c-0.054 0.16-0.107 0.32-0.107 0.533zm-10.138-139.93c2.028 0 3.735 1.655 3.735 3.736v96.168h-10.138c-1.44 0-2.561 1.174-2.561 2.561v5.818h-81.476c-1.174 0-2.134 0.96-2.134 2.134v41.093c0 1.174 0.96 2.135 2.134 2.135h81.903c1.174 0 2.134-0.961 2.134-2.135v-12.168h10.138c-0.053 0.107-0.053 0.214-0.053 0.374v19.746c0 2.028-1.654 3.736-3.735 3.736h-101.43v-163.2h101.48zm-50.956 111.22v10.673h-18.141v-10.673h18.141zm21.877 0v10.673h-18.942v-10.673h18.942zm19.795 0v10.673h-16.861v-10.673h16.861zm-80.409 13.608h17.714v10.674h-17.714v-10.674zm20.596 0h18.141v10.674h-18.141v-10.674zm21.076 0h18.942v10.674h-18.942v-10.674zm21.876 0h16.861v10.674h-16.861v-10.674zm-45.834-2.935h-17.714v-10.673h17.714v10.673zm-17.714 16.491h17.714v12.381h-17.714v-12.381zm20.596 0h18.141v12.381h-18.141v-12.381zm21.076 0h18.942v12.381h-18.942v-12.381zm21.876 0h16.861v12.381h-16.861v-12.381zm60.24-35.276 1.548 1.494-20.383 19.96-9.817-7.632 1.28-1.601 8.217 6.618 19.155-18.839zm-12.432 8.112-6.883 6.777-6.776-5.443-0.054-0.053c-0.907-0.641-2.241-0.481-2.934 0.426l-2.241 2.776c-0.374 0.48-0.534 1.067-0.481 1.654 0.107 0.587 0.427 1.121 0.854 1.441l12.379 9.659 6.19-6.083v8.271h-21.877v-21.88h21.877v2.455h-0.054zm5.923-5.817-2.988 2.935c0-1.441-1.174-2.562-2.561-2.562h-22.57c-1.441 0-2.562 1.174-2.562 2.562v22.574c0 1.441 1.174 2.562 2.562 2.562h22.57c1.44 0 2.561-1.174 2.561-2.562v-11.26-0.16l2.988-2.936v19.906h-33.669v-33.674h33.669v2.348 0.267zm-21.13-111.59c2.028 0 3.735 1.654 3.735 3.735v102.36h-3.521v-96.168c0-3.629-2.988-6.618-6.616-6.618h-8.538v-3.308h14.94zm-34.468-6.298h15.313c0.694 0 1.281 0.587 1.281 1.281v8.325h-17.875v-8.325c0-0.694 0.534-1.281 1.281-1.281zm-4.216 6.298v3.308h-6.936v-3.308h6.936zm-26.411-6.298h15.313c0.694 0 1.281 0.587 1.281 1.281v8.325h-17.875v-8.325c0-0.694 0.534-1.281 1.281-1.281zm-4.216 6.298v3.308h-6.936v-3.308h6.936zm-26.411-6.298h15.313c0.694 0 1.281 0.587 1.281 1.281v8.325h-17.875v-8.325c0-0.694 0.534-1.281 1.281-1.281zm-4.216 6.298v3.308h-8.056v-3.308h8.056zm-39.057 17.451v-0.214c0-0.747 0.5869-1.334 1.3339-1.334h13.446c0.747 0 1.334 0.587 1.334 1.334v0.214c0 0.747-0.587 1.334-1.334 1.334h-13.499c-0.6937 0-1.2806-0.587-1.2806-1.334zm18.942 0v-0.214c0-0.907-0.2668-1.708-0.747-2.401 1.1739 0.32 2.0809 1.441 2.0809 2.721 0 1.495-1.1205 2.722-2.6145 2.829 0.8004-0.694 1.2806-1.761 1.2806-2.935zm-18.942 26.577v-0.214c0-0.747 0.5869-1.334 1.3339-1.334h13.446c0.747 0 1.334 0.587 1.334 1.334v0.214c0 0.747-0.587 1.334-1.334 1.334h-13.499c-0.6937 0-1.2806-0.587-1.2806-1.334zm18.942 0v-0.214c0-0.907-0.2668-1.708-0.747-2.401 1.1739 0.32 2.0809 1.441 2.0809 2.721 0 1.495-1.1205 2.722-2.6145 2.829 0.8004-0.694 1.2806-1.761 1.2806-2.935zm-18.942 26.577v-0.214c0-0.747 0.5869-1.334 1.3339-1.334h13.446c0.747 0 1.334 0.587 1.334 1.334v0.214c0 0.747-0.587 1.334-1.334 1.334h-13.499c-0.6937 0-1.2806-0.641-1.2806-1.334zm18.942 0v-0.214c0-0.907-0.2668-1.708-0.747-2.401 1.1739 0.32 2.0809 1.44 2.0809 2.721 0 1.495-1.1205 2.722-2.6145 2.829 0.8004-0.694 1.2806-1.761 1.2806-2.935zm-18.942 26.577v-0.214c0-0.747 0.5869-1.334 1.3339-1.334h13.446c0.747 0 1.334 0.587 1.334 1.334v0.214c0 0.747-0.587 1.334-1.334 1.334h-13.499c-0.6937-0.054-1.2806-0.641-1.2806-1.334zm18.942 0v-0.214c0-0.854-0.2668-1.708-0.747-2.401 1.1739 0.32 2.0809 1.44 2.0809 2.721 0 1.495-1.1205 2.722-2.6145 2.829 0.8004-0.694 1.2806-1.761 1.2806-2.935zm-18.942 26.576v-0.213c0-0.747 0.5869-1.334 1.3339-1.334h13.446c0.747 0 1.334 0.587 1.334 1.334v0.213c0 0.748-0.587 1.335-1.334 1.335h-13.499c-0.6937-0.054-1.2806-0.641-1.2806-1.335zm18.942 0v-0.213c0-0.907-0.2668-1.708-0.747-2.402 1.1739 0.321 2.0809 1.441 2.0809 2.722 0 1.494-1.1205 2.722-2.6145 2.829 0.8004-0.694 1.2806-1.761 1.2806-2.936zm-18.942 26.577v-0.213c0-0.747 0.5869-1.334 1.3339-1.334h13.446c0.747 0 1.334 0.587 1.334 1.334v0.213c0 0.748-0.587 1.335-1.334 1.335h-13.499c-0.6937-0.054-1.2806-0.641-1.2806-1.335zm18.942 0v-0.213c0-0.907-0.2668-1.708-0.747-2.402 1.1739 0.321 2.0809 1.441 2.0809 2.722 0 1.494-1.1205 2.722-2.6145 2.829 0.8004-0.694 1.2806-1.762 1.2806-2.936zm-12.219 19.373v-15.157h6.6163c1.0671 1.068 2.5611 1.708 4.1085 1.708 3.2014 0 5.7626-2.615 5.7626-5.764 0-3.148-2.6145-5.763-5.7626-5.763-1.2806 0-2.5078 0.427-3.5216 1.174h-7.2032v-17.932h6.6163c1.0671 1.068 2.5611 1.708 4.1085 1.708 3.2014 0 5.7626-2.615 5.7626-5.763 0-3.149-2.6145-5.764-5.7626-5.764-1.2806 0-2.5078 0.427-3.4682 1.174h-7.2032v-17.931h6.6163c1.0671 1.067 2.5611 1.707 4.1085 1.707 3.2014 0 5.7625-2.615 5.7625-5.763 0-3.149-2.6145-5.764-5.7625-5.764-1.2806 0-2.5078 0.427-3.4683 1.174h-7.2032v-17.931h6.6163c1.0672 1.067 2.5612 1.707 4.1085 1.707 3.2014 0 5.7626-2.615 5.7626-5.763 0-3.149-2.6145-5.764-5.7626-5.764-1.2806 0-2.5078 0.427-3.5216 1.174h-7.2032v-17.931h6.6163c1.0672 1.067 2.5612 1.707 4.1085 1.707 3.2014 0 5.7626-2.615 5.7626-5.763 0-3.202-2.6145-5.764-5.7626-5.764-1.2806 0-2.5078 0.427-3.5216 1.174h-7.2032v-17.931h6.6163c1.0672 1.067 2.5612 1.707 4.1085 1.707 3.2014 0 5.7626-2.615 5.7626-5.763 0-3.202-2.6145-5.764-5.7626-5.764-1.2806 0-2.5078 0.427-3.5216 1.174h-7.2032v-7.525c0-3.042 2.4545-5.496 5.4958-5.496h15.848v174.94h-1.121c-0.32 0-0.587 0.106-0.8 0.267h-13.926c-3.0947 0-5.6025-2.455-5.6025-5.497z" opacity=".29"/>
<path d="m161.78 379.66c3.842 4.056 9.017 6.244 14.62 6.244h0.693c10.512-0.373 18.996-8.859 19.422-19.372 0.107-2.295-0.213-4.59-0.907-6.724l-0.427-1.388-16.7 5.177 4.588-16.918-1.387-0.373c-2.241-0.587-4.589-0.801-6.936-0.641-10.031 0.801-17.982 9.019-18.462 19.052-0.267 5.604 1.654 10.887 5.496 14.943zm31.854-13.235c-0.32 8.966-7.63 16.224-16.594 16.544-3.895 0.107-7.63-1.014-10.671-3.255l11.471-13.022c0.214 0 0.481-0.053 0.694-0.107l14.78-4.589c0.213 1.494 0.373 2.935 0.32 4.429zm-18.675-17.878c0.48-0.053 0.961-0.053 1.441-0.053 1.014 0 2.081 0.106 3.094 0.267l-3.574 13.181-9.551-10.193c2.454-1.761 5.389-2.935 8.59-3.202zm-15.794 16.331c0.214-4.377 2.081-8.326 4.963-11.261l10.991 11.741-10.991 12.488-0.214-0.214c-3.308-3.469-4.962-8.005-4.749-12.754z" opacity=".29"/>
<path d="m188.3 339.47-1.387-0.374-4.802 17.771c-0.214 0.748-0.053 1.495 0.427 2.082 0.427 0.587 1.174 0.96 1.921 0.96 0.266 0 0.48-0.053 0.693-0.106l17.608-5.444-0.427-1.387c-2.081-6.511-7.416-11.688-14.033-13.502zm-3.148 17.291 3.789-14.036c4.535 1.654 8.27 5.23 10.084 9.713l-13.873 4.323z" opacity=".29"/>
<path d="m114.61 328.9c-0.8 0-1.44 0.64-1.44 1.441 0 0.8 0.64 1.441 1.44 1.441h45.194c0.8 0 1.44-0.641 1.44-1.441 0-0.801-0.64-1.441-1.44-1.441h-2.828v-27.804l1.654 2.081c0.48 0.64 1.387 0.747 2.027 0.213 0.641-0.48 0.747-1.387 0.214-2.028l-5.336-6.777-5.389 6.831c-0.48 0.64-0.374 1.547 0.213 2.028 0.267 0.213 0.587 0.32 0.908 0.32 0.426 0 0.853-0.214 1.12-0.534l1.654-2.081v27.804h-9.124v-22.948l1.654 2.082c0.48 0.64 1.387 0.747 2.028 0.213 0.64-0.48 0.747-1.387 0.213-2.028l-5.282-6.831-5.389 6.831c-0.481 0.641-0.374 1.548 0.213 2.028 0.267 0.214 0.587 0.32 0.907 0.32 0.427 0 0.854-0.213 1.121-0.533l1.654-2.082v22.948h-8.217v-17.397l1.654 2.081c0.48 0.64 1.387 0.747 2.027 0.213 0.641-0.48 0.747-1.387 0.214-2.028l-5.389-6.831-5.389 6.831c-0.481 0.641-0.374 1.548 0.213 2.028 0.267 0.214 0.587 0.321 0.907 0.321 0.427 0 0.854-0.214 1.121-0.534l1.654-2.081v17.397h-5.816v-5.55h2.081c0.693 0 1.28-0.373 1.6-1.014 0.321-0.587 0.214-1.334-0.213-1.868l-7.15-9.019-7.15 9.019c-0.427 0.534-0.48 1.228-0.213 1.868 0.32 0.587 0.907 1.014 1.601 1.014h2.08v5.55h-3.041v-0.053zm4.535-8.485c-0.106 0-0.213 0-0.266 0.053-0.107 0-0.16-0.053-0.267-0.053h-0.587l3.361-4.27 3.362 4.27h-0.587c-0.107 0-0.213 0-0.267 0.053-0.106 0-0.16-0.053-0.266-0.053-0.801 0-1.441 0.64-1.441 1.44v7.045h-1.601v-7.045c0.054-0.747-0.64-1.44-1.441-1.44z" opacity=".29"/>
<path d="m170.37 303.98h8.484c0.801 0 1.441-0.64 1.441-1.441 0-0.8-0.64-1.44-1.441-1.44h-8.484c-0.8 0-1.44 0.64-1.44 1.44 0 0.801 0.64 1.441 1.44 1.441z" opacity=".29"/>
<path d="m170.37 309.9h28.28c0.8 0 1.44-0.64 1.44-1.441 0-0.8-0.64-1.441-1.44-1.441h-28.28c-0.8 0-1.44 0.641-1.44 1.441 0 0.801 0.64 1.441 1.44 1.441z" opacity=".29"/>
<path d="m170.37 315.45h28.28c0.8 0 1.44-0.64 1.44-1.441 0-0.8-0.64-1.44-1.44-1.44h-28.28c-0.8 0-1.44 0.64-1.44 1.44 0 0.801 0.64 1.441 1.44 1.441z" opacity=".29"/>
<path d="m170.37 321h28.28c0.8 0 1.44-0.641 1.44-1.441 0-0.801-0.64-1.441-1.44-1.441h-28.28c-0.8 0-1.44 0.64-1.44 1.441 0 0.8 0.64 1.441 1.44 1.441z" opacity=".29"/>
<path d="m170.37 326.56h28.28c0.8 0 1.44-0.641 1.44-1.441 0-0.801-0.64-1.441-1.44-1.441h-28.28c-0.8 0-1.44 0.64-1.44 1.441 0 0.8 0.64 1.441 1.44 1.441z" opacity=".29"/>
<path d="m170.37 332.1h28.28c0.8 0 1.44-0.64 1.44-1.441 0-0.8-0.64-1.441-1.44-1.441h-28.28c-0.8 0-1.44 0.641-1.44 1.441 0 0.801 0.64 1.441 1.44 1.441z" opacity=".29"/>
<path d="m144.92 352.17h-28.333c-0.8 0-1.44 0.641-1.44 1.441 0 0.801 0.64 1.441 1.44 1.441h28.333c0.8 0 1.441-0.64 1.441-1.441 0-0.8-0.641-1.441-1.441-1.441z" opacity=".29"/>
<path d="m144.92 362.1h-28.333c-0.8 0-1.44 0.641-1.44 1.441 0 0.801 0.64 1.441 1.44 1.441h28.333c0.8 0 1.441-0.64 1.441-1.441 0-0.8-0.641-1.441-1.441-1.441z" opacity=".29"/>
<path d="m144.92 372.08h-28.333c-0.8 0-1.44 0.641-1.44 1.441 0 0.801 0.64 1.441 1.44 1.441h28.333c0.8 0 1.441-0.64 1.441-1.441 0-0.8-0.641-1.441-1.441-1.441z" opacity=".29"/>
<path d="m385.66 37.037-49.675 15.37c-0.694 0.2135-1.174-0.1601-1.334-0.3202s-0.587-0.6404-0.374-1.3342l13.606-50.165-1.387-0.37357c-0.267-0.053367-0.533-0.1601-0.8-0.21347h-28.279c-17.021 4.3228-31.214 16.384-38.364 32.928-0.32 0.7471 0 1.601 0.747 1.9212s1.601 0 1.921-0.7472c3.148-7.3647 7.79-13.769 13.499-18.945l36.443 38.905-36.443 41.413c-3.682-3.3088-6.883-7.0979-9.551-11.367-0.427-0.6937-1.334-0.9072-2.027-0.4803-0.694 0.427-0.908 1.3342-0.481 2.028 3.042 4.8564 6.777 9.1792 11.045 12.808 0.054 0.0533 0.107 0.1067 0.16 0.1601 0.054 0.0533 0.16 0.1067 0.214 0.1601 10.244 8.645 23.37 13.609 37.03 13.609 0.64 0 1.334 0 1.974-0.054 29.72-1.014 53.89-25.136 55.011-54.861 0.267-6.5108-0.587-12.968-2.508-19.106l-0.427-1.3342zm-54.157 12.702-34.149-36.503c8.324-6.7776 18.569-11.047 29.667-11.954 5.816-0.48031 11.632 0 17.234 1.3342l-12.752 47.123zm54.157 7.6849c-1.067 28.231-24.01 51.073-52.236 52.087-13.233 0.48-26.039-4.003-36.07-12.115l37.083-42.16c0.747 0.2135 1.601 0.2135 2.402-0.0534l46.847-14.516c1.547 5.4435 2.188 11.047 1.974 16.757z" opacity=".29"/>
<path d="m382.09 0h-4.535c8.164 6.4574 14.46 15.156 17.875 25.136l-46.848 14.516c-0.16 0.0534-0.267 0.0534-0.427 0.0534-0.427 0-0.8-0.2135-1.067-0.5337-0.16-0.2134-0.373-0.6404-0.213-1.174l10.244-37.998h-2.988l-10.084 37.25c-0.374 1.2808-0.107 2.6684 0.747 3.7357 0.8 1.0674 2.081 1.7078 3.415 1.7078 0.427 0 0.853-0.0534 1.28-0.2135l49.622-15.423-0.426-1.3875c-3.095-9.9797-8.965-18.839-16.595-25.67z" opacity=".29"/>
<path d="m354.61 95.634c0.213 0 0.426-0.0534 0.64-0.1601 5.922-2.9886 11.045-7.4181 14.886-12.808 3.095-4.3227 5.283-9.1258 6.51-14.302 0.213-0.8005-0.267-1.5477-1.067-1.7612-0.8-0.2134-1.547 0.2669-1.761 1.0674-1.174 4.8031-3.201 9.2859-6.083 13.288-3.575 4.9631-8.377 9.1258-13.872 11.901-0.694 0.3735-1.014 1.2274-0.641 1.9746 0.374 0.5336 0.854 0.8005 1.388 0.8005z" opacity=".29"/>
<path d="m345.33 98.996c0.107 0 0.214 0 0.321-0.0533 1.28-0.2669 2.561-0.6404 3.841-1.0674 0.747-0.2668 1.174-1.0673 0.907-1.8145-0.266-0.7471-1.067-1.174-1.814-0.9072-1.174 0.3736-2.401 0.7471-3.575 1.014-0.8 0.1601-1.28 0.9606-1.12 1.7611 0.213 0.6404 0.8 1.0673 1.44 1.0673z" opacity=".29"/>
<path d="m246.72 60.092h-11.685v22.521h11.685v-22.521zm-2.881 19.586h-5.869v-16.704h5.869v16.704z" opacity=".29"/>
<path d="m260.49 51.926h-11.686v30.633h11.686v-30.633zm-2.882 27.751h-5.869v-24.816h5.869v24.816z" opacity=".29"/>
<path d="m262.62 82.613h11.632v-38.158h-11.686v38.158h0.054zm2.881-35.276h5.869v32.341h-5.869v-32.341z" opacity=".29"/>
<path d="m288.02 36.29h-11.632v46.27h11.685v-46.27h-0.053zm-2.881 43.388h-5.87v-40.452h5.87v40.452z" opacity=".29"/>
<path d="m301.79 27.858h-11.685v54.755h11.685v-54.755zm-2.881 51.82h-5.87v-48.938h5.87v48.938z" opacity=".29"/>
<path d="m260.38 29.405c-0.053 0.8005 0.533 1.4943 1.334 1.601l4.002 0.3736-29.88 19.586c-0.694 0.427-0.854 1.3342-0.427 2.028 0.267 0.4269 0.747 0.6404 1.227 0.6404 0.267 0 0.534-0.0534 0.8-0.2135l29.88-19.586-1.28 3.7891c-0.267 0.7471 0.16 1.601 0.907 1.8145 0.16 0.0534 0.32 0.0534 0.48 0.0534 0.587 0 1.174-0.3736 1.387-1.014l3.148-9.4994-9.977-0.9073c-0.801-0.0533-1.494 0.5337-1.601 1.3342z" opacity=".29"/>
<path d="m132.86 246.34h88.04c4.962 0 8.964-4.003 8.964-8.966v-44.882c0-0.267-0.054-0.48-0.16-0.694l18.194-24.389 1.654-2.241c2.668-3.522 1.921-8.592-1.6-11.261l-1.494-1.12c-3.522-2.669-8.591-1.922-11.259 1.601l-1.174 1.601-3.041 4.056-1.12 1.494v-43.601c0-4.963-4.002-8.966-8.964-8.966h-12.699v-1.174c0-1.548-1.281-2.828-2.828-2.828h-8.537v-6.8848c0-1.5477-1.281-2.8285-2.828-2.8285h-34.256c-1.547 0-2.828 1.2808-2.828 2.8285v6.8848h-8.537c-1.547 0-2.828 1.28-2.828 2.828v1.174h-12.699c-4.962 0-8.964 4.003-8.964 8.966v119.38c0 4.963 4.002 9.019 8.964 9.019zm85.318-69.164-23.37 31.219 0.267 0.161-2.615 12.381v0.107c-0.16 1.44 0.374 2.775 1.441 3.575 0.64 0.48 1.387 0.747 2.188 0.747 0.533 0 1.12-0.106 1.654-0.373l11.258-6.084 0.267 0.16 8.857-11.848v25.83c0 0.854-0.694 1.548-1.547 1.548h-79.342c-0.854 0-1.548-0.694-1.548-1.548v-105.13c0-0.854 0.694-1.548 1.548-1.548h79.288c0.854 0 1.548 0.694 1.548 1.548v48.724c0 0.213 0.053 0.373 0.106 0.534zm14.3-14.196 0.694 0.534-33.562 44.828-0.694-0.534 33.562-44.828zm2.348-3.202 9.711 7.258-0.054 0.053-0.64 0.801-9.657-7.258 0.64-0.854zm-39.058 59.504 2.722 2.028-2.028 1.068c-0.32 0.16-0.64 0.106-0.907-0.054-0.213-0.16-0.32-0.48-0.32-0.854l0.533-2.188zm5.55 0.534-4.909-3.629 1.174-5.603 1.387 1.014 7.363 5.496-5.015 2.722zm7.309-4.696-6.723-5.017 33.562-44.828 6.723 5.016-33.562 44.829zm36.07-59.985 1.494 1.121c2.241 1.707 2.721 4.909 1.014 7.151l-0.961 1.281-9.657-7.258 0.96-1.281c1.707-2.242 4.909-2.722 7.15-1.014zm-96.203-47.23h8.537c1.547 0 2.828-1.281 2.828-2.829v-6.8841h34.095v6.8841c0 1.548 1.281 2.829 2.828 2.829h8.537v9.766h-56.825v-9.766zm-21.716 10.086c0-3.362 2.721-6.084 6.082-6.084h12.699v5.871c0 1.547 1.281 2.828 2.828 2.828h56.932c1.548 0 2.828-1.281 2.828-2.828v-5.871h12.753c3.361 0 6.082 2.722 6.082 6.084v46.537c0 0.266 0.054 0.48 0.16 0.693l-6.136 8.219v-45.576c0-2.455-1.974-4.429-4.428-4.429h-79.342c-2.455 0-4.429 1.974-4.429 4.429v105.24c0 2.454 1.974 4.429 4.429 4.429h79.288c2.455 0 4.429-1.975 4.429-4.429v-28.605c0-0.267-0.107-0.587-0.213-0.801l6.189-8.325v41.893c0 3.362-2.721 6.084-6.083 6.084h-87.986c-3.361 0-6.082-2.722-6.082-6.084v-119.28z" opacity=".29"/>
<path d="m140.06 132.3c1.002 0 1.815-0.813 1.815-1.815s-0.813-1.814-1.815-1.814c-1.001 0-1.814 0.812-1.814 1.814s0.813 1.815 1.814 1.815z" opacity=".29"/>
<path d="m213.96 132.3c1.002 0 1.814-0.813 1.814-1.815s-0.812-1.814-1.814-1.814-1.814 0.812-1.814 1.814 0.812 1.815 1.814 1.815z" opacity=".29"/>
<path d="m140.06 232.31c1.002 0 1.815-0.812 1.815-1.814 0-1.003-0.813-1.815-1.815-1.815-1.001 0-1.814 0.812-1.814 1.815 0 1.002 0.813 1.814 1.814 1.814z" opacity=".29"/>
<path d="m213.96 232.31c1.002 0 1.814-0.812 1.814-1.814 0-1.003-0.812-1.815-1.814-1.815s-1.814 0.812-1.814 1.815c0 1.002 0.812 1.814 1.814 1.814z" opacity=".29"/>
<path d="m186.64 100.54h-20.062c-0.8 0-1.441 0.64-1.441 1.441s0.641 1.441 1.441 1.441h20.062c0.801 0 1.441-0.64 1.441-1.441s-0.64-1.441-1.441-1.441z" opacity=".29"/>
<path d="m161.56 143.13-2.667 2.082v-1.655h-15.794v15.797h15.794v-10.407l4.482-3.522c0.64-0.48 0.747-1.388 0.213-2.028-0.48-0.64-1.441-0.747-2.028-0.267zm-5.602 13.289h-9.978v-9.98h9.978v1.121l-3.895 3.095-1.601-1.388c-0.587-0.533-1.547-0.426-2.027 0.161-0.534 0.587-0.427 1.547 0.16 2.028l3.415 2.935 3.948-3.149v5.177z" opacity=".29"/>
<path d="m161.56 173.44-2.667 2.081v-1.708h-15.794v15.797h15.794v-10.406l4.482-3.523c0.64-0.48 0.747-1.387 0.213-2.028-0.48-0.587-1.441-0.693-2.028-0.213zm-5.602 13.288h-9.978v-9.979h9.978v1.12l-3.895 3.096-1.601-1.388c-0.587-0.534-1.547-0.427-2.027 0.16-0.534 0.587-0.427 1.548 0.16 2.028l3.415 2.935 3.948-3.148v5.176z" opacity=".29"/>
<path d="m161.56 203.76-2.667 2.081v-1.708h-15.794v15.797h15.794v-10.407l4.482-3.522c0.64-0.48 0.747-1.388 0.213-2.028-0.48-0.587-1.441-0.694-2.028-0.213zm-5.602 13.288h-9.978v-9.98h9.978v1.121l-3.895 3.095-1.601-1.387c-0.587-0.534-1.547-0.427-2.027 0.16-0.534 0.587-0.427 1.548 0.16 2.028l3.415 2.935 3.948-3.149v5.177z" opacity=".29"/>
<path d="m171.22 149.86h10.725c0.8 0 1.441-0.641 1.441-1.441 0-0.801-0.641-1.441-1.441-1.441h-10.725c-0.8 0-1.441 0.64-1.441 1.441 0 0.8 0.641 1.441 1.441 1.441z" opacity=".29"/>
<path d="m204.89 154.34h-33.668c-0.8 0-1.441 0.641-1.441 1.441 0 0.801 0.641 1.441 1.441 1.441h33.668c0.801 0 1.441-0.64 1.441-1.441 0-0.8-0.64-1.441-1.441-1.441z" opacity=".29"/>
<path d="m171.22 179.53h10.725c0.8 0 1.441-0.641 1.441-1.441 0-0.801-0.641-1.441-1.441-1.441h-10.725c-0.8 0-1.441 0.64-1.441 1.441 0 0.8 0.641 1.441 1.441 1.441z" opacity=".29"/>
<path d="m204.89 184.01h-33.668c-0.8 0-1.441 0.64-1.441 1.441 0 0.8 0.641 1.44 1.441 1.44h33.668c0.801 0 1.441-0.64 1.441-1.44 0-0.801-0.64-1.441-1.441-1.441z" opacity=".29"/>
<path d="m181.95 206.9h-10.725c-0.8 0-1.441 0.641-1.441 1.441 0 0.801 0.641 1.441 1.441 1.441h10.725c0.8 0 1.441-0.64 1.441-1.441 0.053-0.8-0.641-1.441-1.441-1.441z" opacity=".29"/>
<path d="m254.62 478.86 0.32 0.16c4.109 1.761 9.498 2.669 14.193 2.935-15.153 7.579-24.704 22.095-26.785 41.04h2.935c1.547-13.342 6.99-24.336 15.58-31.967l4.322 20.28 9.604 2.454-7.897 7.258 0.694 2.028h3.095l-0.427-1.174 10.405-9.606-13.02-3.309-4.268-19.959c4.589-3.469 9.871-6.137 15.9-7.792l2.295 41.84h2.934l-1.814-33.248c3.255 4.323 8.591 7.152 14.673 7.152 6.03 0 11.365-2.935 14.674-7.525l-1.815 33.621h2.935l2.241-41.946c2.188 0.8 4.322 1.334 6.403 1.654 3.575 1.388 6.883 3.202 9.924 5.337-0.106 0.16-0.16 0.32-0.213 0.48l-4.322 20.333-13.019 3.309 10.404 9.606-0.426 1.174h3.094l0.694-2.028-7.897-7.258 9.604-2.455 4.589-21.347c9.551 7.792 15.74 19.266 17.448 33.088h2.935c-2.081-17.878-11.259-32.127-25.452-40.026 9.338-0.853 15.847-6.03 18.142-8.165 1.227-1.12 5.069-4.91 4.322-7.204-0.427-1.334-2.081-1.868-3.682-2.348-0.427-0.161-0.854-0.267-1.121-0.374-1.707-0.747-3.041-1.548-4.161-2.455-4.856-3.842-3.149-8.752-1.121-14.409 0.534-1.548 1.121-3.149 1.547-4.75 2.668-10.193 3.469-19.265 2.455-27.644-2.081-17.184-13.126-32.554-28.119-39.172-14.033-6.19-31.748-4.856-45.087 3.469-14.353 8.912-23.851 26.63-23.104 43.014 0.267 6.298 1.814 12.381 3.255 18.305 0.64 2.562 1.281 5.177 1.814 7.792 0.107 0.587 0.267 1.174 0.427 1.814 0.694 2.936 1.547 6.618 0.587 8.859-0.747 1.761-2.828 2.669-4.802 3.523-0.267 0.106-0.48 0.213-0.747 0.32-0.214 0.106-0.48 0.213-0.694 0.32-2.294 1.014-6.563 2.882-4.749 7.311 1.548 3.95 6.83 6.191 10.298 7.685zm57.946 1.121c-0.64 7.845-7.203 14.036-15.207 14.036-8.163 0-14.62-5.871-15.206-13.502l7.043-2.028v-9.019c2.614 0.64 5.335 1.014 8.163 1.014 2.455 0 4.802-0.267 7.097-0.748l0.32 8.112 7.737 2.082 0.053 0.053zm-47.968-47.55c0-2.562 0.267-5.124 0.747-7.579 5.122-3.255 13.553-10.299 17.501-22.734 0 0 0-0.053 0.054-0.053 0.053 0 0.106 0 0.106 0.053 5.123 6.671 19.422 21.4 46.474 23.695 0.374 2.188 0.587 4.43 0.587 6.671 0 19.319-14.726 35.062-32.761 35.062-17.981-0.053-32.708-15.796-32.708-35.115zm-14.406 34.048c0.266-0.107 0.48-0.213 0.747-0.32 0.213-0.107 0.48-0.214 0.693-0.32 2.241-1.014 5.016-2.242 6.243-5.017 1.387-3.149 0.374-7.311-0.373-10.673-0.161-0.641-0.267-1.228-0.374-1.762-0.533-2.668-1.227-5.283-1.867-7.898-1.441-5.764-2.882-11.741-3.202-17.771-0.693-15.423 8.217-32.021 21.716-40.399 12.539-7.792 29.187-9.073 42.366-3.256 13.82 6.084 24.438 20.92 26.412 36.877 0.96 8.005 0.213 16.704-2.401 26.524-0.374 1.441-0.907 2.988-1.441 4.483-2.081 5.87-4.429 12.541 2.081 17.664 1.334 1.067 2.881 1.975 4.802 2.829 0.374 0.16 0.907 0.32 1.441 0.48 0.427 0.16 1.174 0.373 1.601 0.587-0.587 1.334-3.362 4.856-8.378 7.792-4.161 2.401-10.244 4.643-17.661 3.575-2.134-0.8-4.322-1.494-6.563-2.081-0.16-0.054-0.32-0.054-0.48-0.054v-0.106l-7.897-2.135-0.267-6.618c14.834-4.589 25.719-19.212 25.719-36.449 0-2.188-0.16-4.323-0.534-6.458 1.387 0.054 2.721 0.107 4.162 0.107 0.8 0 1.441-0.641 1.441-1.441 0-0.801-0.641-1.441-1.441-1.441-30.467 0-46.047-15.957-51.33-22.841-0.693-0.907-1.814-1.334-2.934-1.121-1.121 0.214-2.028 0.961-2.348 2.028-5.282 16.757-19.849 23.108-20.009 23.215-0.747 0.32-1.067 1.174-0.8 1.921 0.213 0.534 0.747 0.907 1.334 0.907 0.213 0 0.373-0.053 0.587-0.106 0.106-0.054 0.373-0.16 0.907-0.427-0.267 1.868-0.427 3.789-0.427 5.71 0 16.864 10.351 31.166 24.704 36.13-0.053 0.106-0.053 0.266-0.053 0.373v7.258l-5.87 1.708c-0.106 0-0.266 0-0.373 0.053-1.761 0.427-3.415 0.961-5.069 1.495-0.267-0.267-0.694-0.427-1.067-0.374-5.976 0.374-13.339-0.747-17.875-2.668l-0.32-0.16c-3.041-1.335-7.63-3.309-8.804-6.191-0.587-1.548 0-2.241 3.202-3.629z" opacity=".29"/>
<path d="m330.49 401c0.267 0.481 0.747 0.694 1.281 0.694 0.266 0 0.48-0.053 0.747-0.213 0.693-0.427 0.907-1.281 0.533-1.975-0.32-0.534-0.64-1.067-1.014-1.601-0.426-0.694-1.333-0.854-2.027-0.427s-0.854 1.334-0.427 2.028c0.32 0.48 0.64 0.961 0.907 1.494z" opacity=".29"/>
<path d="m307.12 383.76c0.106 0 10.511 1.654 18.995 11.153 0.267 0.321 0.693 0.481 1.067 0.481 0.32 0 0.694-0.107 0.96-0.374 0.587-0.534 0.641-1.441 0.107-2.028-9.177-10.3-20.276-12.061-20.756-12.114-0.8-0.107-1.547 0.427-1.654 1.227-0.107 0.801 0.48 1.548 1.281 1.655z" opacity=".29"/>
<path d="m295.33 440.28v-7.845h3.735v7.845c0 2.028 1.654 3.682 3.681 3.682h18.782c2.028 0 3.682-1.654 3.682-3.682v-10.674c0-2.028-1.654-3.682-3.682-3.682h-18.782c-2.027 0-3.628 1.601-3.681 3.629h-3.789c-0.053-1.975-1.707-3.629-3.681-3.629h-18.782c-2.028 0-3.682 1.654-3.682 3.682v10.674c0 2.028 1.654 3.682 3.682 3.682h18.782c2.081 0 3.735-1.654 3.735-3.682zm6.669-10.674c0-0.427 0.374-0.8 0.801-0.8h18.781c0.427 0 0.801 0.373 0.801 0.8v10.674c0 0.427-0.374 0.8-0.801 0.8h-18.781c-0.427 0-0.801-0.373-0.801-0.8v-10.674zm-29.986 10.674v-10.674c0-0.427 0.373-0.8 0.8-0.8h18.782c0.427 0 0.8 0.373 0.8 0.8v10.674c0 0.427-0.373 0.8-0.8 0.8h-18.782c-0.427 0-0.8-0.373-0.8-0.8z" opacity=".29"/>
<path d="m411.7 465.63v-4.589c0-0.534-0.107-1.014-0.374-1.495-0.267-1.227-1.761-2.134-7.256-2.935-4.162-0.587-9.498-0.907-15.1-0.907h-0.481c-0.053-0.374-0.106-0.747-0.16-1.068-0.32-1.28-0.853-2.454-1.387-3.522-0.267-0.533-0.534-1.067-0.747-1.601-0.48-1.121-0.907-2.775-0.32-4.002 0.107-0.267 0.533-0.748 0.907-1.014 0.64-0.427 0.854-1.335 0.373-2.028-0.426-0.641-1.333-0.854-2.027-0.374-0.747 0.48-1.494 1.388-1.868 2.135-0.853 1.761-0.8 3.949 0.214 6.404 0.267 0.587 0.533 1.174 0.8 1.761 0.48 1.014 0.961 1.975 1.174 2.935 0.053 0.16 0.053 0.32 0.107 0.427-4.322 0.107-8.431 0.374-11.685 0.854-2.882 0.427-4.696 0.854-5.763 1.334-0.053 0.054-0.16 0.054-0.213 0.107-0.054 0.053-0.107 0.053-0.214 0.107-0.32 0.213-0.587 0.427-0.747 0.64-0.533 0.587-0.854 1.334-0.854 2.188v38.638c0 7.845 6.403 14.249 14.247 14.249h17.127c7.097 0 13.02-5.23 14.087-12.007 6.509-0.054 11.792-5.871 11.792-13.022v-10.14c-0.054-7.098-5.229-12.861-11.632-13.075zm0 9.126c1.387 0.213 2.561 1.921 2.561 3.949v10.14c0 2.028-1.121 3.736-2.561 3.949v-18.038zm-26.946-16.01c-0.64 0.533-0.8 1.441-0.32 2.081 0.267 0.374 0.747 0.587 1.174 0.587 0.32 0 0.587-0.107 0.854-0.267 0.8-0.587 1.334-1.441 1.707-2.401h0.801c8.964 0 15.153 0.8 18.034 1.441-3.041 1.014-9.657 2.294-18.034 2.294s-14.994-1.28-18.035-2.294c2.454-0.641 7.15-1.281 13.819-1.441zm12.699 52.246h-17.127c-6.243 0-11.312-5.07-11.312-11.314v-37.197c1.067 0.427 2.561 0.908 4.802 1.388 2.561 0.534 7.95 1.441 15.207 1.441s12.592-0.907 15.207-1.441c2.081-0.427 3.575-0.907 4.642-1.334v37.09c-0.107 6.297-5.176 11.367-11.419 11.367zm22.944-22.147c0 5.497-3.895 9.926-8.697 10.086v-3.255c3.041-0.16 5.442-3.202 5.442-6.884v-10.14c0-3.683-2.401-6.671-5.442-6.885v-3.202c4.802 0.16 8.697 4.643 8.697 10.087v10.193z" opacity=".29"/>
<path d="m392.98 436.22c0.641-0.427 0.854-1.335 0.374-2.028-0.427-0.641-1.334-0.854-2.028-0.374-0.747 0.48-1.494 1.388-1.867 2.135-0.854 1.761-0.801 3.949 0.213 6.404 0.267 0.587 0.534 1.174 0.801 1.761 0.48 1.014 0.96 1.975 1.173 2.935 0.267 1.174 0.16 2.722-0.747 3.416-0.64 0.48-0.747 1.387-0.266 2.028 0.266 0.373 0.747 0.587 1.173 0.587 0.321 0 0.587-0.107 0.854-0.267 1.761-1.334 2.455-3.843 1.814-6.404-0.32-1.281-0.853-2.455-1.387-3.522-0.267-0.534-0.534-1.068-0.747-1.601-0.48-1.121-0.907-2.776-0.32-4.003 0.213-0.32 0.64-0.8 0.96-1.067z" opacity=".29"/>
<path d="m361.07 276.66h69.524c3.255 0 5.923-2.668 5.923-5.923v-9.927h4.215c3.148 0 5.709-2.561 5.709-5.71v-41.306c0-3.149-2.561-5.711-5.709-5.711h-70.005c-3.148 0-5.709 2.562-5.709 5.711v10.139h-3.948c-3.255 0-5.923 2.669-5.923 5.924v40.826c0 3.362 2.668 5.977 5.923 5.977zm72.512-34.475h-75.554v-7.205h75.554v7.205zm-62.855-31.167h69.952c1.547 0 2.774 1.228 2.774 2.776v2.881h-75.5v-2.881c0-1.495 1.227-2.776 2.774-2.776zm-2.774 8.593h75.554v35.542c0 1.548-1.228 2.775-2.775 2.775h-4.269v-28.017c0-3.256-2.667-5.924-5.922-5.924h-62.588v-4.376zm-9.925 10.3c0-1.655 1.334-2.989 2.988-2.989h69.578c1.654 0 2.988 1.334 2.988 2.989v2.134h-75.554v-2.134zm75.554 15.156v13.448c-0.16 0.267-0.267 0.534-0.267 0.854 0 0.321 0.107 0.641 0.267 0.854v10.514c0 1.654-1.334 2.988-2.988 2.988h-69.524c-1.654 0-2.988-1.334-2.988-2.988v-25.67h75.5z" opacity=".29"/>
<path d="m364.7 257.55h40.018c1.707 0 3.095-1.388 3.095-3.096v-1.067c0-1.708-1.388-3.095-3.095-3.095h-40.018c-1.707 0-3.095 1.387-3.095 3.095v1.067c0 1.708 1.388 3.096 3.095 3.096zm-0.213-4.163c0-0.107 0.106-0.213 0.213-0.213h40.018c0.107 0 0.213 0.106 0.213 0.213v1.067c0 0.107-0.106 0.214-0.213 0.214h-40.018c-0.107 0-0.213-0.107-0.213-0.214v-1.067z" opacity=".29"/>
<path d="m415.81 259.63c1.548 0 2.988-0.587 4.109-1.601 1.12 1.014 2.561 1.601 4.055 1.601 1.601 0 3.095-0.64 4.215-1.761 1.121-1.121 1.761-2.615 1.761-4.216s-0.64-3.095-1.761-4.216c-1.12-1.121-2.614-1.761-4.215-1.761-1.548 0-2.988 0.587-4.055 1.601-1.067-1.014-2.508-1.601-4.109-1.601-3.308 0-5.976 2.668-5.976 5.977s2.668 5.977 5.976 5.977zm5.389-7.311c0.16-0.32 0.374-0.587 0.587-0.854 0.587-0.587 1.334-0.907 2.188-0.907s1.601 0.32 2.188 0.907c0.586 0.587 0.907 1.334 0.907 2.188 0 0.801-0.321 1.601-0.907 2.188-0.587 0.587-1.334 0.907-2.188 0.907s-1.601-0.32-2.188-0.907c-0.213-0.213-0.427-0.534-0.587-0.854l-0.64-1.334 0.64-1.334zm-5.389-1.761c1.174 0 2.241 0.693 2.775 1.761l0.64 1.334-0.64 1.334c-0.534 1.068-1.601 1.761-2.775 1.761-1.707 0-3.095-1.387-3.095-3.095s1.388-3.095 3.095-3.095z" opacity=".29"/>
<path d="m38.31 201.04 8.4838-8.486c3.2548 2.082 6.8297 3.576 10.671 4.43v12.008h14.086v-12.061c3.7884-0.854 7.3633-2.295 10.672-4.43l8.4837 8.485 9.9779-9.979-8.4839-8.486c2.081-3.255 3.575-6.884 4.4287-10.673h12.005v-14.089h-12.059c-0.8537-3.789-2.2943-7.365-4.4286-10.674l8.4842-8.485-9.9249-9.926-8.4837 8.485c-3.2548-2.081-6.8831-3.576-10.672-4.429v-12.008h-14.086v12.008c-3.7883 0.853-7.3633 2.294-10.671 4.429l-8.4838-8.485-9.9778 9.979 8.4838 8.486c-2.0809 3.255-3.5749 6.831-4.4286 10.673h-12.005v14.089h12.005c0.8537 3.789 2.2943 7.365 4.4286 10.674l-8.4838 8.485 9.9778 9.98zm1.6007-19.106c-2.4544-3.522-4.1085-7.471-4.8555-11.741l-0.2134-1.174h-11.525v-8.272h11.525l0.2134-1.174c0.747-4.216 2.4011-8.165 4.8555-11.74l0.6937-1.014-8.1637-8.166 5.8693-5.87 8.1637 8.165 1.0137-0.694c3.5216-2.455 7.47-4.109 11.739-4.856l1.1739-0.214v-11.527h8.2703v11.527l1.1739 0.214c4.2152 0.747 8.1636 2.401 11.739 4.856l1.0138 0.694 8.1636-8.165 5.8693 5.87-8.217 8.112 0.6936 1.014c2.4545 3.522 4.1085 7.472 4.8555 11.741l0.2135 1.174h11.526v8.272h-11.526l-0.2135 1.174c-0.747 4.216-2.401 8.165-4.8555 11.741l-0.6936 1.014 8.1636 8.165-5.8693 5.871-8.1636-8.166-1.0138 0.694c-3.5216 2.455-7.47 4.109-11.739 4.857l-1.1738 0.213v11.527h-8.2704v-11.527l-1.1738-0.213c-4.2153-0.748-8.1637-2.402-11.739-4.857l-1.0138-0.694-8.1103 8.166-5.8693-5.871 8.1637-8.165-0.6937-0.961z" opacity=".29"/>
<path d="m451.78 468.46c-6.189 0-11.258 5.069-11.258 11.26s5.069 11.261 11.258 11.261 11.258-5.07 11.258-11.261-5.069-11.26-11.258-11.26zm0 19.585c-4.589 0-8.324-3.735-8.324-8.325 0-4.589 3.735-8.325 8.324-8.325s8.324 3.736 8.324 8.325c0 4.59-3.735 8.325-8.324 8.325z" opacity=".29"/>
<path d="m548.67 350.09c-3.842 0-6.937 3.148-6.937 6.938 0 3.842 3.148 6.937 6.937 6.937 3.841 0 6.936-3.148 6.936-6.937 0-3.79-3.095-6.938-6.936-6.938zm0 11.047c-2.241 0-4.056-1.815-4.056-4.056 0-2.242 1.815-4.056 4.056-4.056s4.055 1.814 4.055 4.056c0 2.241-1.814 4.056-4.055 4.056z" opacity=".29"/>
<path d="m509.08 421.82c-3.842 0-6.937 3.148-6.937 6.937s3.148 6.938 6.937 6.938c3.788 0 6.936-3.095 6.936-6.938 0-3.842-3.095-6.937-6.936-6.937zm0 10.993c-2.241 0-4.056-1.814-4.056-4.056 0-2.241 1.815-4.056 4.056-4.056s4.055 1.815 4.055 4.056c0 2.242-1.814 4.056-4.055 4.056z" opacity=".29"/>
<path d="m562.92 252.8c-6.19 0-11.259 5.07-11.259 11.261 0 6.19 5.069 11.26 11.259 11.26 6.189 0 11.258-5.07 11.258-11.26 0-6.191-5.069-11.261-11.258-11.261zm0 19.586c-4.589 0-8.324-3.736-8.324-8.325 0-4.59 3.735-8.326 8.324-8.326s8.324 3.736 8.324 8.326c0 4.589-3.735 8.325-8.324 8.325z" opacity=".29"/>
<path d="m422.8 32.981c6.189 0 11.258-5.0699 11.258-11.26s-5.069-11.26-11.258-11.26-11.258 5.0699-11.258 11.26 5.069 11.26 11.258 11.26zm0-19.586c4.589 0 8.324 3.7357 8.324 8.3253s-3.735 8.3253-8.324 8.3253-8.324-3.7357-8.324-8.3253 3.735-8.3253 8.324-8.3253z" opacity=".29"/>
<path d="m193.37 0c0.747 1.2274 1.174 2.7217 1.174 4.2694 0 4.5896-3.735 8.3253-8.324 8.3253-4.588 0-8.323-3.7357-8.323-8.3253 0-1.5477 0.427-2.9886 1.174-4.2694h-3.255c-0.534 1.3342-0.854 2.7751-0.854 4.2694 0 6.1906 5.069 11.261 11.258 11.261 6.19 0 11.259-5.0699 11.259-11.261 0-1.4943-0.32-2.9352-0.854-4.2694h-3.255z" opacity=".29"/>
<path d="m357.39 139.93c0-4.589-3.735-8.325-8.324-8.325-4.588 0-8.323 3.736-8.323 8.325 0 4.59 3.735 8.325 8.323 8.325 4.589 0 8.324-3.735 8.324-8.325zm-13.766 0c0-2.988 2.454-5.443 5.442-5.443s5.443 2.455 5.443 5.443c0 2.989-2.455 5.444-5.443 5.444s-5.442-2.455-5.442-5.444z" opacity=".29"/>
<path d="m337 360.6c0 4.59 3.735 8.325 8.323 8.325 4.589 0 8.324-3.735 8.324-8.325 0-4.589-3.735-8.325-8.324-8.325-4.588 0-8.323 3.736-8.323 8.325zm8.323-5.39c2.988 0 5.443 2.455 5.443 5.444 0 2.988-2.455 5.443-5.443 5.443s-5.442-2.455-5.442-5.443c0.053-3.042 2.454-5.444 5.442-5.444z" opacity=".29"/>
<path d="m520.45 121.68c4.588 0 8.323-3.736 8.323-8.326 0-4.589-3.735-8.325-8.323-8.325-4.589 0-8.324 3.736-8.324 8.325 0 4.59 3.735 8.326 8.324 8.326zm0-13.716c2.988 0 5.442 2.455 5.442 5.444 0 2.988-2.454 5.443-5.442 5.443s-5.443-2.455-5.443-5.443c0-3.042 2.455-5.444 5.443-5.444z" opacity=".29"/>
<path d="m101.43 66.496c6.189 0 11.258-5.0699 11.258-11.26s-5.069-11.26-11.258-11.26c-6.1895 0-11.258 5.0699-11.258 11.26 0.0533 6.1906 5.0689 11.26 11.258 11.26zm0-19.639c4.589 0 8.324 3.7358 8.324 8.3253 0 4.5896-3.735 8.3254-8.324 8.3254-4.5888 0-8.3238-3.7358-8.3238-8.3254 0-4.5362 3.735-8.3253 8.3238-8.3253z" opacity=".29"/>
<path d="m46.367 392.14c-6.1895 0-11.258 5.07-11.258 11.261 0 6.19 5.0689 11.26 11.258 11.26 6.1894 0 11.258-5.07 11.258-11.26 0-6.191-5.0689-11.261-11.258-11.261zm0 19.586c-4.5888 0-8.3237-3.736-8.3237-8.325 0-4.59 3.7349-8.326 8.3237-8.326 4.5887 0 8.3237 3.736 8.3237 8.326 0 4.589-3.735 8.325-8.3237 8.325z" opacity=".29"/>
<path d="m64.509 188.65c13.126 0 23.797-10.674 23.797-23.802 0-13.129-10.671-23.802-23.797-23.802s-23.797 10.673-23.797 23.802c0 13.128 10.671 23.802 23.797 23.802zm0-44.722c11.525 0 20.916 9.392 20.916 20.92 0 11.527-9.3909 20.92-20.916 20.92s-20.916-9.393-20.916-20.92c0-11.528 9.3909-20.92 20.916-20.92z" opacity=".29"/>
<path d="m58.053 174.4c1.4406 0.694 3.2548 1.068 5.229 1.068v2.348c0 0.801 0.6403 1.441 1.4406 1.441 0.8004 0 1.4407-0.64 1.4407-1.441v-2.668c0.1067-0.054 0.2667-0.054 0.3735-0.054 1.0137-0.267 1.9208-0.64 2.6678-1.12 0.747-0.534 1.3873-1.175 1.8142-1.922 0.4268-0.747 0.6402-1.601 0.6402-2.561 0-0.801-0.1067-1.495-0.3735-2.082-0.2667-0.587-0.6936-1.12-1.2272-1.654-0.5335-0.48-1.1738-0.907-1.9742-1.281-0.5336-0.267-1.1738-0.534-1.9208-0.854v-6.884c0.8537 0.107 1.654 0.267 2.4544 0.534 0.2134 0.053 0.3735 0.106 0.5869 0.106 0.9071 0 1.6007-0.693 1.6007-1.494 0-0.64-0.4268-1.174-1.0138-1.441-1.0671-0.373-2.2943-0.587-3.6282-0.64v-1.922c0-0.8-0.6403-1.44-1.4407-1.44-0.8003 0-1.4406 0.64-1.4406 1.44v2.135c-0.2668 0.054-0.5336 0.107-0.8004 0.16-0.9604 0.267-1.8141 0.641-2.5611 1.174-0.747 0.534-1.3873 1.121-1.8142 1.868-0.4802 0.747-0.6936 1.601-0.6936 2.562 0 0.747 0.1067 1.441 0.3735 2.028s0.6403 1.174 1.1205 1.654 1.1205 0.961 1.8675 1.334c0.6936 0.374 1.5473 0.748 2.5078 1.121v6.671c-0.3735 0-0.747-0.053-1.1205-0.107-0.4802-0.106-1.0138-0.213-1.494-0.373-0.4269-0.16-1.0138-0.321-1.2272-0.374-0.747-0.373-2.1343 0.16-2.1343 1.121v0.48c0.0533 0.427 0.3201 0.854 0.747 1.067zm5.1756-12.007c-0.5336-0.267-1.0138-0.534-1.3339-0.801-0.3202-0.267-0.5336-0.533-0.6937-0.854-0.16-0.32-0.2134-0.693-0.2134-1.12s0.1067-0.801 0.2668-1.121c0.2134-0.374 0.4802-0.64 0.8004-0.907 0.3201-0.214 0.747-0.427 1.2272-0.587v5.497c0-0.107-0.0534-0.107-0.0534-0.107zm2.988 4.696c0.2668 0.16 0.5336 0.32 0.747 0.48 0.3735 0.267 0.6937 0.588 0.9071 0.908s0.2668 0.693 0.2668 1.12c0 1.335-0.6403 2.189-1.9209 2.615v-5.123z" opacity=".29"/>
<path d="m552.3 338.51v-45.629l-17.181-14.996 1.28-1.441c0.854-0.961 1.068-2.295 0.534-3.522-0.534-1.174-1.654-1.922-2.988-1.922h-6.883v-20.706c0-1.868-1.547-3.416-3.415-3.416h-12.379c-1.867 0-3.415 1.548-3.415 3.416v20.76l-6.403 0.16c-1.333 0.053-2.507 0.8-3.041 2.081-0.533 1.228-0.32 2.615 0.587 3.629l0.96 1.068-16.967 14.889v45.629h69.311zm-66.43-41.733 21.663 19.586-21.663 16.704v-36.29zm31.748 15.53 29.079 23.321h-59.386l30.307-23.321zm10.884 5.016 20.863-20.333v37.037l-20.863-16.704zm-27.425-42.907c0.053-0.107 0.16-0.32 0.48-0.32l9.231-0.267v-23.535c0-0.267 0.213-0.534 0.534-0.534h12.378c0.267 0 0.534 0.214 0.534 0.534v23.588h9.818c0.16 0 0.266 0.054 0.32 0.214 0.053 0.16 0.053 0.267-0.054 0.373l-2.241 2.562-14.513 16.277-14.353-16.17-1.921-2.188c-0.32-0.214-0.266-0.427-0.213-0.534zm13.98 20.546h-10.565c-0.801 0-1.441 0.641-1.441 1.441 0 0.801 0.64 1.441 1.441 1.441h17.981c0.8 0 1.441-0.64 1.441-1.441 0-0.8-0.641-1.441-1.441-1.441h-2.614l13.339-14.943 15.527 13.556-22.463 21.88-8.591-6.884-7.737 5.977-23.317-21.027 15.26-13.395 13.18 14.836z" opacity=".29"/>
<path d="m526.37 297.9h2.615c0.8 0 1.44-0.641 1.44-1.441 0-0.801-0.64-1.441-1.44-1.441h-2.615c-0.8 0-1.44 0.64-1.44 1.441-0.054 0.8 0.64 1.441 1.44 1.441z" opacity=".29"/>
<path d="m68.084 87.896c0.8004 0.1068 1.494-0.4803 1.6007-1.2274l0.4269-3.3622 8.5905 11.954c-0.5869 0.8539-0.9604 1.8679-0.9604 2.9352 0 2.7751 2.241 5.0701 5.0689 5.0701s5.0689-2.242 5.0689-5.0701c0-0.5336-0.1067-1.0673-0.2668-1.5476l6.8831-3.7891c0.9071 1.1741 2.3477 1.9212 3.9484 1.9212 0.8004 0 1.6011-0.2135 2.2411-0.5337 2.348 3.0953 5.602 8.1123 7.096 10.406 0.427 0.641 1.334 0.854 1.975 0.427 0.693-0.427 0.853-1.334 0.426-1.974-1.547-2.348-4.962-7.6318-7.416-10.834 0.427-0.7471 0.693-1.601 0.693-2.5082 0-2.7751-2.241-5.0699-5.0684-5.0699-2.7746 0-5.069 2.2414-5.069 5.0699v0.4803l-7.4166 4.1093c-0.8537-0.6938-1.9742-1.1207-3.1481-1.1207-0.6403 0-1.2272 0.1067-1.8141 0.3202l-8.3771-11.848 3.2548 0.8005c0.747 0.2135 1.5474-0.2668 1.7608-1.0673 0.2134-0.7472-0.2668-1.5477-1.0672-1.7612l-8.5371-2.1346-1.1205 8.6988c-0.1067 0.8005 0.4802 1.5477 1.2272 1.6544zm30.36-0.4269c1.1739 0 2.1881 0.9606 2.1881 2.188 0 1.1741-0.9609 2.1881-2.1881 2.1881-1.1738 0-2.1876-0.9606-2.1876-2.1881 0-1.174 0.9604-2.188 2.1876-2.188zm-13.446 10.727c0 1.1741-0.9604 2.1881-2.1876 2.1881-1.1739 0-2.1877-0.9606-2.1877-2.1881 0-1.1741 0.9605-2.188 2.1877-2.188s2.1876 0.9606 2.1876 2.188z" opacity=".29"/>
<path d="m72.832 111.91c0 0.801 0.6403 1.441 1.4407 1.441h43.646v-41.68c0-0.8005-0.64-1.4409-1.44-1.4409-0.801 0-1.441 0.6404-1.441 1.4409v38.798h-40.818c-0.747 0-1.3873 0.641-1.3873 1.441z" opacity=".29"/>
<path d="m221.54 475.88h-13.233l-4.215-10.781c-0.267-0.693-0.96-1.174-1.654-1.174h-23.744c-0.747 0-1.441 0.481-1.707 1.174l-3.895 10.781h-13.713c-2.081 0-3.842 1.707-3.842 3.842v35.703c0 2.081 1.708 3.842 3.842 3.842h62.161c2.081 0 3.842-1.707 3.842-3.842v-35.703c-0.054-2.135-1.761-3.842-3.842-3.842zm-42.099-9.073h22.25l3.522 9.019h-2.455l-2.241-5.87c-0.267-0.694-0.907-1.121-1.654-1.121h-16.327c-0.747 0-1.388 0.48-1.654 1.174l-2.188 5.871h-2.561l3.308-9.073zm20.222 9.073h-17.821l1.548-4.11h14.726l1.547 4.11zm22.784 39.491c0 0.481-0.427 0.908-0.907 0.908h-62.161c-0.48 0-0.907-0.427-0.907-0.908v-35.702c0-0.481 0.427-0.908 0.907-0.908h62.108c0.48 0 0.907 0.427 0.907 0.908v35.702h0.053z" opacity=".29"/>
<path d="m535.06 365.3-12.432-14.035h-31.214v57.423h44.18v-42.8l-0.213-0.267c-0.161-0.16-0.214-0.267-0.321-0.321zm-11.631-8.805 7.416 8.379h-7.416v-8.379zm-29.133 49.258v-51.606h26.198v13.662h12.112v37.944h-38.31z" opacity=".29"/>
<path d="m525.41 375.71h-18.782c-0.8 0-1.441 0.641-1.441 1.441 0 0.801 0.641 1.441 1.441 1.441h18.782c0.8 0 1.44-0.64 1.44-1.441 0-0.8-0.64-1.441-1.44-1.441z" opacity=".29"/>
<path d="m525.41 384.4h-18.782c-0.8 0-1.441 0.64-1.441 1.441 0 0.8 0.641 1.441 1.441 1.441h18.782c0.8 0 1.44-0.641 1.44-1.441 0.054-0.801-0.64-1.441-1.44-1.441z" opacity=".29"/>
<path d="m525.41 392.84h-18.782c-0.8 0-1.441 0.64-1.441 1.441 0 0.8 0.641 1.441 1.441 1.441h18.782c0.8 0 1.44-0.641 1.44-1.441 0-0.801-0.64-1.441-1.44-1.441z" opacity=".29"/>
<path d="m503.53 375.71h-3.308c-0.8 0-1.44 0.641-1.44 1.441 0 0.801 0.64 1.441 1.44 1.441h3.308c0.801 0 1.441-0.64 1.441-1.441 0-0.8-0.64-1.441-1.441-1.441z" opacity=".29"/>
<path d="m503.53 384.4h-3.308c-0.8 0-1.44 0.64-1.44 1.441 0 0.8 0.64 1.441 1.44 1.441h3.308c0.801 0 1.441-0.641 1.441-1.441 0.053-0.801-0.64-1.441-1.441-1.441z" opacity=".29"/>
<path d="m503.53 392.84h-3.308c-0.8 0-1.44 0.64-1.44 1.441 0 0.8 0.64 1.441 1.44 1.441h3.308c0.801 0 1.441-0.641 1.441-1.441 0-0.801-0.64-1.441-1.441-1.441z" opacity=".29"/>
<path d="m520.18 129.42-5.336 5.87h-21.343v6.564h-4.749l2.508 28.018h30.574c2.187 3.896 6.349 6.511 11.151 6.511 7.044 0 12.753-5.71 12.753-12.755 0-2.508-0.747-4.856-1.974-6.831l2.294-2.775c0.534-0.64 0.427-1.548-0.213-2.028-0.641-0.533-1.548-0.427-2.028 0.214l-1.921 2.348c-0.427-0.427-0.907-0.801-1.387-1.174l1.12-11.528h-4.855v-12.434h-16.594zm-23.744 8.805h19.742l5.336-5.87h12.379v9.499h-37.457v-3.629zm29.933 23.535 7.15 7.579 8.324-10.087c0.693 1.334 1.067 2.829 1.067 4.43 0 5.443-4.429 9.819-9.818 9.819-3.468 0-6.509-1.814-8.27-4.536 0.053-0.16 0.107-0.374 0.107-0.587 0-0.694-0.481-1.227-1.121-1.388-0.32-0.907-0.534-1.867-0.587-2.881v-0.481c0-5.443 4.429-9.819 9.818-9.819 1.654 0 3.255 0.427 4.642 1.174 0.213 0.48 0.64 0.854 1.227 0.907h0.214c0.373 0.267 0.693 0.587 1.013 0.907l-6.723 8.165-4.855-5.176c-0.534-0.587-1.494-0.641-2.028-0.054-0.693 0.534-0.693 1.441-0.16 2.028zm11.419-9.926c-1.494-0.587-3.095-0.907-4.749-0.907-7.043 0-12.753 5.71-12.753 12.755v0.587c0.054 0.96 0.214 1.868 0.427 2.721h-26.732l-1.974-22.2h46.474l-0.693 7.044z" opacity=".29"/>
<path d="m22.73 271.16v-0.373l-0.1067-2.722-0.0533-1.868c-0.0534-2.294-1.0138-4.429-2.7212-6.03-1.6541-1.601-3.8418-2.402-6.1361-2.348l-2.0276 0.053c-2.2944 0.053-4.4286 1.014-6.0294 2.722-1.6007 1.654-2.4011 3.842-2.3477 6.137l0.10671 3.149 2.0809 70.071h0.26679l6.1894 12.435 0.0534 0.106c0.747 1.281 2.0275 2.028 3.4148 2.028h0.1067c1.4407-0.053 2.7212-0.854 3.4149-2.241l5.4958-12.862h0.2668l-1.9743-68.257zm-16.221 4.643 1.1739-0.053 1.8141 61.212-1.1739 0.054-1.8141-61.213zm-0.16007-4.322 13.446-0.427v0.213l0.0534 1.228-13.446 0.427-0.05335-1.441zm6.0827 65.428-1.8141-61.212 9.3375-0.267 1.8141 61.212-9.3375 0.267zm-4.6421-74.287c1.0671-1.121 2.4545-1.761 4.0018-1.815l2.0276-0.053c1.5474-0.054 2.988 0.48 4.0551 1.548 1.1205 1.067 1.7608 2.454 1.8142 4.002l0.0533 1.868-13.446 0.427-0.05336-1.868c-0.05336-1.548 0.48022-2.989 1.5474-4.109zm7.6835 89.016c-0.3735 0.054-0.6937-0.213-0.9605-0.587l-1.2272-2.401 4.1085-0.107-1.0671 2.508c-0.1601 0.321-0.4802 0.587-0.8537 0.587zm3.2548-6.083-6.7764 0.213-2.9346-5.87 12.272-0.374-2.5611 6.031z" opacity=".29"/>
</g>
</svg>
